<svg width="28" height="28" viewBox="0 0 28 28" fill="none" xmlns="http://www.w3.org/2000/svg">
<g clip-path="url(#clip0_2:281)">
<path d="M26.6879 22.7507C26.4539 22.7507 26.2342 22.8123 26.0435 22.92C25.8103 22.5555 25.4013 22.3132 24.9375 22.3132C24.4737 22.3132 24.0647 22.5555 23.8315 22.92C23.6408 22.8123 23.4211 22.7507 23.1871 22.7507C23.0331 22.7507 22.8874 22.7822 22.75 22.8312V16.1882H23.1945H23.1967C23.2238 16.1882 23.247 16.1772 23.2728 16.1724C23.3039 16.1663 23.3371 16.165 23.366 16.1532C23.3861 16.1444 23.4006 16.1287 23.4189 16.1177C23.4482 16.0993 23.4806 16.0836 23.5047 16.0587C23.5204 16.0429 23.5292 16.021 23.5423 16.0031C23.562 15.9755 23.5852 15.951 23.5979 15.92C23.6088 15.8937 23.6093 15.8635 23.6149 15.8351C23.6211 15.8071 23.632 15.7808 23.632 15.7511C23.632 15.7507 23.632 15.7502 23.632 15.7502C23.632 15.7498 23.632 15.7493 23.632 15.7489L23.625 14.4364C23.625 14.4233 23.6184 14.4119 23.6171 14.3988C23.6145 14.3699 23.6079 14.3423 23.5996 14.3139C23.5948 14.299 23.5957 14.282 23.59 14.2675C23.5843 14.2544 23.5734 14.2448 23.5664 14.2321C23.5598 14.2207 23.5589 14.2072 23.5515 14.1962L22.75 12.9931V11.8132C22.75 11.5712 22.5544 11.3757 22.3125 11.3757H14.4375V10.9123C16.6451 10.6923 18.3746 8.82459 18.3746 6.56053C18.3746 4.14859 16.4124 2.1864 14 2.1864C11.5876 2.1864 9.62544 4.14859 9.62544 6.56053C9.62544 8.82459 11.3549 10.6923 13.5625 10.9123V11.3757H5.6875C5.44556 11.3757 5.25 11.5712 5.25 11.8132V12.9931L4.4485 14.1953C4.44063 14.2067 4.43975 14.2203 4.43362 14.2317C4.41962 14.2579 4.40869 14.2842 4.40037 14.3135C4.39119 14.3419 4.3855 14.3703 4.38287 14.3997C4.38156 14.4128 4.375 14.4246 4.375 14.4382V15.7507C4.375 15.9926 4.57056 16.1882 4.8125 16.1882H5.25V22.8154C5.11525 22.776 4.97131 22.7507 4.81294 22.7507C4.57888 22.7507 4.35925 22.8123 4.1685 22.92C3.93531 22.5555 3.52669 22.3132 3.0625 22.3132C2.59831 22.3132 2.18969 22.5555 1.9565 22.92C1.76575 22.8123 1.54613 22.7507 1.31206 22.7507C0.588875 22.7507 0 23.3395 0 24.0632V25.3757C0 25.6176 0.195563 25.8132 0.4375 25.8132H5.6875H12.2452H15.7452H22.3125H27.5625C27.8044 25.8132 28 25.6176 28 25.3757V24.0632C28 23.266 27.4851 22.7507 26.6879 22.7507ZM10.5004 6.56053C10.5004 4.63115 12.0702 3.0614 14 3.0614C15.9298 3.0614 17.4996 4.63115 17.4996 6.56053C17.4996 8.4899 15.9298 10.0597 14 10.0597C12.0702 10.0597 10.5004 8.4899 10.5004 6.56053ZM23.1871 23.6257C23.429 23.6257 23.6254 23.8216 23.6254 24.0632C23.6254 24.3051 23.821 24.5007 24.0629 24.5007C24.3049 24.5007 24.5004 24.3051 24.5004 24.0632V23.6248C24.5004 23.3837 24.6964 23.1882 24.9375 23.1882C25.1786 23.1882 25.3746 23.3837 25.3746 23.6248V24.0632C25.3746 24.3051 25.5701 24.5007 25.8121 24.5007C26.054 24.5007 26.2496 24.3051 26.2496 24.0632C26.2496 23.8216 26.446 23.6257 26.6879 23.6257C27.0506 23.6257 27.125 23.8002 27.125 24.0632V24.9382H22.75V24.0632C22.75 23.8216 22.946 23.6257 23.1871 23.6257ZM5.25 15.3132V14.8757H22.7522L22.7548 15.3132H5.25ZM21.875 12.2507V12.6882H6.125V12.2507H21.875ZM5.92156 13.5632H22.0784L22.3703 14.0007H5.62975L5.92156 13.5632ZM1.31206 23.6257C1.554 23.6257 1.75044 23.8216 1.75044 24.0632C1.75044 24.3051 1.946 24.5007 2.18794 24.5007C2.42987 24.5007 2.62544 24.3051 2.62544 24.0632V23.6248C2.62544 23.3837 2.82144 23.1882 3.0625 23.1882C3.30356 23.1882 3.49956 23.3837 3.49956 23.6248V24.0632C3.49956 24.3051 3.69512 24.5007 3.93706 24.5007C4.179 24.5007 4.37456 24.3051 4.37456 24.0632C4.37456 23.8216 4.571 23.6257 4.81294 23.6257C5.17563 23.6257 5.25 23.8002 5.25 24.0632V24.9382H0.875V24.0632C0.875 23.8216 1.071 23.6257 1.31206 23.6257ZM6.125 24.0632V16.1882H21.875V24.0632V24.9382H16.1827V18.3765C16.1827 18.1346 15.9871 17.939 15.7452 17.939H12.2452C12.0033 17.939 11.8077 18.1346 11.8077 18.3765V24.9382H6.125V24.0632ZM15.3077 21.4382H12.6827V18.814H15.3077V21.4382ZM12.6827 24.9382V22.3132H15.3077V24.9382H12.6827Z" fill="#7E8B9B"/>
<path d="M11.382 21.0007C11.382 20.9928 11.3781 20.9871 11.3777 20.9793V18.3766C11.3777 18.1346 11.1821 17.9391 10.9402 17.9391H7.00659C6.76465 17.9391 6.56909 18.1346 6.56909 18.3766V22.3132C6.56909 22.5551 6.76465 22.7507 7.00659 22.7507H10.9402C11.1821 22.7507 11.3777 22.5551 11.3777 22.3132V21.0221C11.3781 21.0143 11.382 21.0086 11.382 21.0007ZM8.75703 21.8748C8.75703 21.5375 8.62534 21.233 8.41622 21.0003C8.62578 20.7675 8.75703 20.4626 8.75703 20.1257V18.8141H9.19409V20.1257C9.19409 20.463 9.32534 20.7675 9.53491 21.0003C9.32534 21.233 9.19409 21.538 9.19409 21.8748V21.8757H8.75703V21.8748ZM10.5027 20.5623C10.2629 20.5601 10.0691 20.3659 10.0691 20.1257V18.8141H10.5027V20.5623ZM7.88203 18.8141V20.1257C7.88203 20.3663 7.68734 20.561 7.44759 20.5628C7.44628 20.5628 7.44541 20.5623 7.44453 20.5623H7.44409V18.8141H7.88203ZM7.44409 21.4382C7.4454 21.4382 7.44628 21.4378 7.44759 21.4378C7.68734 21.4395 7.88203 21.6342 7.88203 21.8748V21.8757H7.44409V21.4382ZM10.0691 21.8757V21.8748C10.0691 21.6346 10.2629 21.4404 10.5027 21.4382V21.8757H10.0691Z" fill="#7E8B9B"/>
<path d="M16.6329 21.0112V22.3132C16.6329 22.5551 16.8284 22.7507 17.0704 22.7507H21.0039C21.2459 22.7507 21.4414 22.5551 21.4414 22.3132V21.0112C21.4414 21.0073 21.4436 21.0042 21.4436 21.0007C21.4436 20.9972 21.4414 20.9937 21.4414 20.9902V18.3766C21.4414 18.1346 21.2459 17.9391 21.0039 17.9391H17.0704C16.8284 17.9391 16.6329 18.1346 16.6329 18.3766V20.9902C16.6329 20.9941 16.6307 20.9972 16.6307 21.0007C16.6307 21.0042 16.6329 21.0077 16.6329 21.0112ZM19.2557 20.1257C19.2557 20.463 19.3869 20.7675 19.5965 21.0003C19.3869 21.233 19.2557 21.538 19.2557 21.8748V21.8757H18.8186V21.8748C18.8186 21.5375 18.6869 21.233 18.4778 21.0003C18.6874 20.7675 18.8186 20.4626 18.8186 20.1257V18.8141H19.2557V20.1257ZM17.5079 21.4382C17.5083 21.4382 17.5087 21.4378 17.5092 21.4378C17.7489 21.4395 17.9436 21.6342 17.9436 21.8748V21.8757H17.5079V21.4382ZM20.1307 21.8757V21.8748C20.1307 21.6342 20.3254 21.4395 20.5651 21.4378C20.5656 21.4378 20.566 21.4382 20.5664 21.4382V21.8757H20.1307ZM20.5664 20.5623C20.566 20.5623 20.5656 20.5628 20.5651 20.5628C20.3254 20.561 20.1307 20.3663 20.1307 20.1257V18.8141H20.5664V20.5623ZM17.9436 18.8141V20.1257C17.9436 20.3663 17.7489 20.561 17.5092 20.5628C17.5087 20.5628 17.5083 20.5623 17.5079 20.5623V18.8141H17.9436Z" fill="#7E8B9B"/>
<path d="M16.6254 8.31228V5.2489C16.6254 5.00696 16.4299 4.8114 16.1879 4.8114H15.4936L15.1843 4.50209C15.1025 4.42028 14.9914 4.3739 14.875 4.3739H13.1241C13.0078 4.3739 12.8966 4.41984 12.8148 4.50209L12.5059 4.8114H11.8121C11.5701 4.8114 11.3746 5.00696 11.3746 5.2489V8.31228C11.3746 8.55422 11.5701 8.74978 11.8121 8.74978H16.1879C16.4299 8.74978 16.6254 8.55422 16.6254 8.31228ZM15.7504 7.87478H14H12.2496V5.6864H12.6871C12.8034 5.6864 12.9146 5.64047 12.9964 5.55822L13.3053 5.2489H14.6939L15.0032 5.55822C15.0854 5.64047 15.1961 5.6864 15.3125 5.6864H15.7504V7.87478Z" fill="#7E8B9B"/>
<path d="M15.0938 6.78125C15.0938 6.17794 14.6033 5.6875 14 5.6875C13.3967 5.6875 12.9062 6.17794 12.9062 6.78125C12.9062 7.38456 13.3967 7.875 14 7.875C14.6033 7.875 15.0938 7.38456 15.0938 6.78125ZM14 7C13.8797 7 13.7812 6.90156 13.7812 6.78125C13.7812 6.66094 13.8797 6.5625 14 6.5625C14.1203 6.5625 14.2188 6.66094 14.2188 6.78125C14.2188 6.90156 14.1203 7 14 7Z" fill="#7E8B9B"/>
</g>
<defs>
<clipPath id="clip0_2:281">
<rect width="28" height="28" fill="white"/>
</clipPath>
</defs>
</svg>
