<svg width="17" height="20" viewBox="0 0 17 20" fill="none" xmlns="http://www.w3.org/2000/svg">
<path d="M15.5247 8.76824C15.6376 8.84241 15.7896 8.81165 15.8641 8.69877C15.9695 8.53907 16.0615 8.35879 16.1377 8.16298C16.2367 7.90837 16.2919 7.64603 16.3018 7.38335C16.3023 7.3691 16.3025 7.34612 16.2981 7.25343C16.2888 7.06 16.1768 6.88354 16.0055 6.79285C15.9304 6.75311 15.9061 6.7413 15.8895 6.73429C15.6474 6.63159 15.3865 6.57005 15.1141 6.55142C14.6511 6.51977 14.2436 6.59403 13.8317 6.78514C13.7879 6.80545 13.7449 6.82837 13.7024 6.85245C13.6294 6.82488 13.5528 6.80512 13.4732 6.79482C13.4796 6.39982 13.2606 6.04033 12.8885 5.85344C12.5163 5.66661 12.0972 5.7057 11.7843 5.94677C11.6903 5.8497 11.5804 5.77476 11.4609 5.72268C11.4578 5.61854 11.4398 5.51264 11.405 5.40764C11.274 5.01231 10.9501 4.74361 10.5583 4.6928C10.5648 4.29783 10.3458 3.93838 9.97364 3.75151C9.97361 3.75149 9.97364 3.75151 9.97361 3.75149C9.60148 3.56463 9.18232 3.60369 8.86941 3.84476C8.59468 3.56088 8.18569 3.46157 7.79037 3.59259C7.68535 3.62742 7.58948 3.67606 7.50406 3.73578C7.39099 3.67115 7.26532 3.62774 7.1314 3.61038C7.13786 3.21543 6.91889 2.85595 6.54676 2.66904C6.54673 2.66903 6.54676 2.66904 6.54673 2.66903C6.17463 2.48219 5.75551 2.52123 5.44251 2.76233C5.38676 2.70473 5.32524 2.65513 5.25966 2.6131C5.25353 2.56452 5.24605 2.5164 5.23618 2.46902C5.14344 2.02447 4.95962 1.65329 4.65772 1.30088C4.47999 1.09348 4.27481 0.920947 4.04802 0.788247C4.03238 0.779151 4.00839 0.766666 3.93158 0.730108C3.75666 0.646952 3.54817 0.662457 3.38744 0.770615C3.31003 0.822742 3.29245 0.836061 3.28107 0.845185C3.07621 1.01016 2.8988 1.21113 2.75381 1.44246C2.49699 1.85217 2.36133 2.27226 2.35067 2.69102L2.35065 2.69105C2.34077 3.08015 2.43859 3.47422 2.64134 3.86221C2.65927 3.89651 2.67808 3.93008 2.69737 3.96322C2.52258 4.32993 2.56415 4.73884 2.80063 5.04576C2.70558 5.13774 2.63176 5.24503 2.5798 5.36154C2.48773 5.32437 2.39256 5.29054 2.29294 5.26084C1.99905 5.1732 1.70055 5.13521 1.40565 5.14797C1.39048 5.14864 1.36556 5.15046 1.26176 5.16386C1.05512 5.1906 0.875631 5.32614 0.793367 5.51763C0.752176 5.61341 0.743591 5.63699 0.738717 5.65172C0.645844 5.93172 0.600701 6.22919 0.604574 6.53589C0.611489 7.07932 0.738982 7.55838 0.98351 7.95975C1.19122 8.30068 1.48691 8.59077 1.863 8.82373C1.84917 9.39102 1.85972 10.0362 1.92054 10.7093C1.93274 10.8441 2.05184 10.9435 2.18653 10.9312C2.32127 10.9191 2.42062 10.8 2.40842 10.6652C2.35787 10.1059 2.34415 9.56311 2.35019 9.06913C2.57079 9.15586 2.79856 9.21427 3.03117 9.24286C3.14621 9.25699 3.25997 9.26342 3.37093 9.26275C3.3818 9.26876 3.39268 9.27473 3.40377 9.2803C3.48777 9.32248 3.57889 9.35164 3.67463 9.36672C3.67823 9.71596 3.87561 10.0315 4.20588 10.1974L4.20591 10.1974C4.53621 10.3632 4.9072 10.3331 5.18953 10.1274C5.25879 10.1952 5.33659 10.2508 5.42061 10.293C5.63931 10.4028 5.89896 10.423 6.15237 10.3391C6.50317 10.2228 6.74415 9.93918 6.79833 9.59417C6.88864 9.59322 6.97657 9.57909 7.06035 9.55329C7.0897 9.63589 7.13087 9.71489 7.18405 9.78786C6.93973 10.0374 6.85615 10.4001 6.97243 10.7509C7.05641 11.0043 7.22769 11.2004 7.44639 11.3102C7.53041 11.3524 7.62153 11.3816 7.71729 11.3966C7.72091 11.7459 7.91825 12.0615 8.24855 12.2273C8.57885 12.3932 8.94984 12.363 9.23214 12.1573C9.3014 12.2251 9.37922 12.2808 9.46326 12.323C9.47473 12.3287 9.48639 12.3341 9.49811 12.3394C9.56399 12.4288 9.63616 12.516 9.71583 12.5994C9.87716 12.7684 10.0594 12.9158 10.26 13.0406C8.9404 14.0465 7.03175 15.2101 5.19809 15.2763L3.58249 14.465C3.1094 13.7793 2.76695 12.8851 2.56444 11.8066L2.5548 11.7543C2.53026 11.6213 2.40249 11.5334 2.26947 11.558C2.13644 11.5825 2.04853 11.7103 2.07309 11.8433L2.08284 11.8963C2.25964 12.8379 2.54007 13.6513 2.91816 14.3234C2.72443 14.3717 2.55204 14.5008 2.45562 14.6928L2.35998 14.8833C2.18448 15.2328 2.32604 15.6599 2.67555 15.8354L2.7228 15.8591C2.50405 16.1674 2.0482 16.7516 1.3842 17.3111C1.24637 17.4272 1.17674 17.6037 1.1979 17.7831C1.21918 17.9635 1.32867 18.1197 1.49086 18.2012L3.45083 19.1853C3.61302 19.2668 3.80378 19.2613 3.96117 19.1706C4.11769 19.0804 4.2176 18.9192 4.22843 18.7393C4.28041 17.8754 4.47702 17.1591 4.5937 16.7986L4.64071 16.8222C4.99025 16.9977 5.41735 16.8561 5.59285 16.5066L5.68849 16.3162C5.78475 16.1245 5.78542 15.9095 5.70894 15.7254C7.02718 15.5584 8.4863 14.9134 10.0557 13.8027C10.303 13.6276 10.5347 13.4535 10.749 13.2857C11.1607 13.4484 11.5702 13.5124 11.968 13.4754C12.4359 13.4318 12.8962 13.2479 13.3362 12.9288C13.5845 12.7488 13.7962 12.5349 13.9654 12.293C13.9741 12.2806 13.9877 12.2598 14.0401 12.1693C14.1446 11.989 14.1461 11.7641 14.0442 11.5823C13.993 11.4912 13.9795 11.47 13.9709 11.4574C13.805 11.2133 13.5963 10.9966 13.3505 10.8132C13.2672 10.7511 13.1835 10.6944 13.0987 10.6427C13.161 10.5316 13.2028 10.4085 13.2198 10.2775C13.6072 10.2839 13.96 10.0729 14.1498 9.7137C14.1878 9.7094 14.2259 9.70448 14.2642 9.69838C14.4901 9.66227 14.7018 9.60181 14.8936 9.5188C15.0178 9.46503 15.0748 9.32082 15.0211 9.1967C14.9673 9.07259 14.8232 9.01552 14.699 9.06924C14.5705 9.12493 14.4293 9.16797 14.2785 9.19802C14.2767 8.98828 14.2103 8.78443 14.0838 8.61095L15.3297 7.86156C15.4456 7.79183 15.4831 7.64132 15.4133 7.52539C15.3436 7.40952 15.1932 7.37204 15.0772 7.44174L14.3766 7.86315C14.3773 7.7467 14.3591 7.62758 14.3201 7.50965C14.2796 7.38755 14.2206 7.27763 14.147 7.18236C14.4467 7.06104 14.7395 7.01684 15.0808 7.04021C15.2988 7.0551 15.5066 7.10395 15.6957 7.18415C15.6982 7.18523 15.7137 7.19263 15.7766 7.22587C15.7955 7.2359 15.8079 7.25541 15.8089 7.2769C15.8122 7.34632 15.8124 7.36487 15.8124 7.3649L15.8124 7.36484C15.8046 7.57297 15.7605 7.78177 15.6813 7.98547C15.6177 8.14898 15.5418 8.29816 15.4555 8.42885C15.3808 8.54177 15.4118 8.69372 15.5247 8.76824ZM3.73935 18.71C3.7384 18.7258 3.7307 18.738 3.71654 18.7462C3.70619 18.7522 3.68983 18.7573 3.67062 18.7476L1.71065 17.7635C1.69147 17.7538 1.68578 17.7377 1.6844 17.7258C1.68247 17.7095 1.68766 17.6961 1.69984 17.6858C2.45186 17.0522 2.94833 16.3963 3.16566 16.0816L4.15052 16.5761C4.02791 16.9384 3.79842 17.7283 3.73935 18.71ZM5.15499 16.2869C5.1007 16.395 4.96858 16.4387 4.86047 16.3845L2.89531 15.3977C2.7872 15.3434 2.74342 15.2113 2.7977 15.1032L2.89334 14.9127C2.94763 14.8046 3.07972 14.7608 3.18783 14.8151L5.153 15.8019C5.2611 15.8562 5.30491 15.9883 5.25063 16.0964L5.15499 16.2869ZM7.94449 4.05762C8.13341 3.99501 8.39627 4.01141 8.56757 4.24499C8.58797 4.27278 8.60787 4.30448 8.62665 4.3392C8.66649 4.41256 8.74088 4.46062 8.82418 4.46664C8.90742 4.47269 8.98806 4.43597 9.03807 4.36913C9.06176 4.33746 9.08601 4.30896 9.11022 4.28447C9.31353 4.07811 9.57597 4.1 9.7538 4.1893C9.93161 4.27858 10.1059 4.47602 10.0618 4.76238C10.0566 4.7965 10.0483 4.83296 10.037 4.87078C10.0133 4.95084 10.032 5.03747 10.0866 5.10063C10.1412 5.16378 10.2243 5.19482 10.3069 5.18284C10.3459 5.17723 10.3831 5.17427 10.4177 5.17399C10.7073 5.17183 10.8775 5.37293 10.9401 5.5618C10.9485 5.58731 10.955 5.61442 10.9602 5.64224C10.8756 5.64961 10.7901 5.66647 10.7053 5.6946C10.4636 5.7747 10.2696 5.92714 10.1434 6.12286C10.0835 5.65519 9.80022 5.22436 9.34804 4.9973C8.89597 4.77031 8.38126 4.80023 7.97036 5.03128C8.05188 4.81325 8.05825 4.56673 7.97819 4.32517C7.95008 4.24038 7.91262 4.16185 7.86799 4.08959C7.89339 4.07724 7.91898 4.06608 7.94449 4.05762ZM10.9155 8.97871C11.1551 8.97693 11.2962 9.14379 11.3481 9.30057C11.4001 9.45732 11.3868 9.67536 11.1934 9.81713C11.043 9.92739 10.7492 10.0155 10.4436 10.0389C10.4679 9.75148 10.3728 9.46445 10.1816 9.2485C10.4407 9.08486 10.7291 8.98007 10.9155 8.97871ZM11.0027 8.10694C11.1695 7.77477 11.5754 7.64021 11.9076 7.80701C12.2398 7.9738 12.3743 8.37977 12.2075 8.71194C12.1178 8.89065 11.9588 9.01149 11.7794 9.05938C11.6476 8.75622 11.3838 8.55008 11.0683 8.50051C11.0669 8.37262 11.0394 8.24936 10.9891 8.13621C10.9934 8.1264 10.9978 8.11663 11.0027 8.10694ZM9.89777 10.2022C9.75796 10.4807 9.41766 10.5935 9.13922 10.4537C8.86076 10.3138 8.74797 9.97353 8.88778 9.69509C9.02761 9.41662 9.36791 9.30384 9.64638 9.44366C9.92481 9.58348 10.0376 9.92378 9.89777 10.2022ZM9.96576 8.80761C9.94514 8.58266 9.89624 8.35436 9.81669 8.15552C9.97961 8.01795 10.1791 8.03836 10.3172 8.10771C10.4553 8.17707 10.5908 8.32484 10.5778 8.53766C10.3708 8.59266 10.1585 8.68976 9.96576 8.80761ZM9.4827 8.89779C9.19558 8.8736 8.9089 8.96861 8.69307 9.1595C8.52935 8.90049 8.42421 8.61234 8.42283 8.42593C8.42105 8.18617 8.58794 8.04522 8.74471 7.99329C8.85069 7.95814 8.98463 7.95289 9.10412 8.01289C9.16138 8.04164 9.21532 8.08539 9.26123 8.14803C9.3715 8.29838 9.45929 8.59225 9.4827 8.89779ZM4.70203 5.96332C4.80803 5.92821 4.94202 5.92295 5.06147 5.98293C5.11874 6.01169 5.17268 6.05544 5.21859 6.11807C5.32883 6.2684 5.41669 6.56227 5.44013 6.86783C5.15296 6.84361 4.86623 6.93864 4.65037 7.12959C4.48666 6.87054 4.38157 6.58239 4.38016 6.39596C4.37839 6.15625 4.54529 6.0153 4.70203 5.96332ZM4.63786 5.47344C4.56926 5.30089 4.57124 5.10117 4.66094 4.92252C4.82774 4.59036 5.23368 4.45579 5.56585 4.62258C5.89802 4.78937 6.03257 5.19535 5.86578 5.52752C5.86093 5.53718 5.85577 5.54657 5.85051 5.55588C5.72969 5.58311 5.61432 5.63463 5.51093 5.70996C5.28266 5.48647 4.95975 5.39797 4.63786 5.47344ZM5.77404 6.12556C5.93697 5.98799 6.13642 6.0084 6.27453 6.07775C6.41267 6.14712 6.54822 6.29492 6.53518 6.50779C6.32817 6.56285 6.11588 6.66007 5.92311 6.77797C5.9025 6.55292 5.85358 6.32451 5.77404 6.12556ZM5.6037 7.41369C5.88214 7.55351 5.99493 7.8938 5.8551 8.17227C5.71529 8.45071 5.37499 8.56349 5.09655 8.42368C4.81812 8.28387 4.70533 7.94357 4.84514 7.66513C4.985 7.38668 5.32527 7.27388 5.6037 7.41369ZM6.13903 7.2187C6.39813 7.05502 6.68645 6.95012 6.87287 6.94874C7.11271 6.947 7.25356 7.11388 7.30553 7.27063C7.35747 7.42739 7.34409 7.64543 7.15078 7.78719C7.00042 7.89741 6.70652 7.98518 6.40097 8.0086C6.4252 7.72135 6.33009 7.43455 6.13903 7.2187ZM7.76221 6.60839C7.78261 6.57642 7.8018 6.54323 7.81926 6.50846C7.94512 6.25781 7.96808 5.98597 7.89627 5.73952C8.17084 5.35524 8.69317 5.21669 9.12819 5.43513C9.56321 5.65357 9.76409 6.15526 9.61986 6.605C9.37927 6.69462 9.17495 6.87539 9.04909 7.12605C9.03164 7.16081 9.0164 7.19602 9.00291 7.23149C8.7642 7.31226 8.4946 7.30151 8.25215 7.17976C8.00964 7.05799 7.84 6.84815 7.76221 6.60839ZM3.03419 3.55183C2.89868 3.26631 2.8334 2.98133 2.84042 2.70352C2.84882 2.37368 2.95935 2.03698 3.16894 1.70262C3.2849 1.51761 3.42601 1.35749 3.58589 1.22867C3.66531 1.16468 3.70688 1.16399 3.79596 1.20872C3.79917 1.21033 3.80054 1.21102 3.80042 1.21096C3.98026 1.31621 4.14353 1.45371 4.2857 1.61964C4.50822 1.87939 4.64766 2.14064 4.72935 2.45349C4.60899 2.45134 4.4856 2.46971 4.3635 2.51018C4.24557 2.54926 4.13921 2.60582 4.04626 2.67595L3.96581 1.86237C3.95248 1.72772 3.83251 1.62951 3.69794 1.64271C3.56331 1.65602 3.46497 1.77595 3.47828 1.91058L3.62136 3.35758C3.40667 3.35974 3.2035 3.42803 3.03419 3.55183ZM3.14514 4.16142C3.23444 3.98359 3.43185 3.80929 3.71824 3.85336C3.7522 3.85857 3.78866 3.8669 3.82657 3.87816C3.98829 3.92618 4.16241 3.77373 4.13867 3.60843C4.13303 3.56938 4.13005 3.53207 4.1298 3.49755C4.12766 3.20788 4.3287 3.03777 4.51757 2.97518C4.70644 2.91258 4.96937 2.9289 5.14065 3.16255C5.16105 3.19033 5.18094 3.22203 5.19973 3.25675C5.23958 3.33008 5.31395 3.37817 5.39725 3.38419C5.54496 3.39499 5.59428 3.29232 5.68332 3.20196C5.88665 2.99565 6.14909 3.01754 6.32686 3.10681C6.50468 3.19613 6.67898 3.39355 6.63493 3.67983C6.62965 3.71406 6.62134 3.75056 6.61013 3.78831C6.58639 3.86834 6.60506 3.95496 6.65968 4.0181C6.71424 4.08127 6.79728 4.11226 6.87986 4.10041C6.91891 4.09477 6.95622 4.09179 6.99073 4.09154C7.2804 4.08942 7.45053 4.29048 7.51313 4.47935C7.60496 4.75643 7.48277 5.02541 7.23153 5.16147C7.15818 5.2013 7.11013 5.27574 7.1041 5.35899C7.09804 5.44224 7.13477 5.52288 7.20172 5.57294C7.43078 5.74428 7.513 6.02661 7.38144 6.28862C7.34 6.37113 7.27518 6.45278 7.18899 6.51219C7.1364 6.49372 7.08193 6.47941 7.02561 6.47054C7.02193 6.12132 6.82457 5.80577 6.49433 5.63994C6.45327 5.61932 6.41158 5.60175 6.3695 5.58716C6.54608 5.04897 6.30674 4.44643 5.78562 4.18476C5.21209 3.89676 4.51112 4.12907 4.22309 4.70266C4.06075 5.02596 4.06446 5.3894 4.20076 5.69684C4.04143 5.83838 3.93564 6.0289 3.90199 6.24315C3.7486 6.24478 3.60174 6.28382 3.47116 6.355C3.22079 6.32923 3.07123 6.14493 3.01345 5.97069C2.95087 5.78179 2.96721 5.51897 3.20088 5.34757C3.30034 5.27461 3.41217 5.23341 3.42249 5.09095C3.43263 4.95139 3.33226 4.90479 3.25187 4.81786C3.17832 4.73836 3.10886 4.63368 3.08876 4.52612C3.06583 4.403 3.08923 4.27277 3.14514 4.16142ZM2.21226 8.46174C1.85783 8.26038 1.58517 8.00572 1.40189 7.70487C1.20366 7.37948 1.10024 6.98413 1.09444 6.52967C1.09127 6.27763 1.12802 6.03413 1.20292 5.80825C1.25331 5.67078 1.28257 5.64359 1.42686 5.6374C1.66715 5.62704 1.91145 5.65828 2.15299 5.7303C2.27474 5.76658 2.38796 5.80864 2.49504 5.85711C2.50168 5.94592 2.51891 6.0357 2.54845 6.12483C2.64292 6.40985 2.83797 6.62831 3.08615 6.74731C3.08127 6.75637 3.07605 6.76515 3.07139 6.77443C2.942 7.03212 2.93245 7.31438 3.03196 7.56016L1.96113 6.21189C1.87696 6.10592 1.72292 6.08825 1.617 6.1724C1.51105 6.25654 1.49339 6.41063 1.57752 6.51653L2.90408 8.1868C2.86335 8.35664 2.86986 8.54026 2.92974 8.72086C2.93086 8.72423 2.93217 8.72752 2.93333 8.73088C2.68446 8.68233 2.44241 8.59247 2.21226 8.46174ZM3.55703 7.49484C3.41935 7.3319 3.43985 7.13242 3.50923 6.99425C3.57858 6.85614 3.72636 6.72057 3.93924 6.73366C3.99427 6.94073 4.09146 7.15315 4.20938 7.34597C3.98431 7.3666 3.75593 7.41539 3.55703 7.49484ZM3.82742 8.88865C3.58759 8.89043 3.44676 8.72352 3.39477 8.5668C3.34281 8.41002 3.35618 8.19199 3.54952 8.05025C3.69985 7.94001 3.99374 7.85219 4.29931 7.82879C4.2751 8.11594 4.37013 8.40266 4.56108 8.61853C4.30202 8.78219 4.01384 8.88727 3.82742 8.88865ZM4.42571 9.75958C4.2876 9.69023 4.15204 9.54245 4.16512 9.32964C4.37215 9.27462 4.58451 9.17748 4.77728 9.05958C4.79786 9.28461 4.84675 9.51294 4.92624 9.71183C4.76335 9.84941 4.56385 9.82894 4.42571 9.75958ZM5.99822 9.87406C5.84149 9.926 5.62344 9.91259 5.48168 9.71927C5.37145 9.56894 5.28334 9.27506 5.25986 8.96948C5.54717 8.99381 5.83406 8.89875 6.05 8.70769C6.2137 8.96677 6.31875 9.25502 6.3201 9.44142C6.32188 9.68117 6.155 9.82209 5.99822 9.87406ZM6.76106 9.1037C6.70604 8.89667 6.60889 8.68434 6.49103 8.49155C6.71603 8.47096 6.94436 8.42207 7.14325 8.34258C7.21318 8.42535 7.24213 8.51755 7.24476 8.60636C7.19487 8.66561 7.15064 8.73155 7.11406 8.8044C7.07748 8.87725 7.05099 8.95213 7.03325 9.02757C6.96048 9.07852 6.86923 9.11032 6.76106 9.1037ZM7.94464 8.27316C7.85434 8.27411 7.7664 8.28824 7.68259 8.31403C7.65325 8.23143 7.61207 8.15243 7.55889 8.07945C7.71685 7.91816 7.8071 7.70945 7.82014 7.48734C7.88599 7.53589 7.95675 7.57961 8.03232 7.61756C8.10791 7.65551 8.18529 7.68604 8.26361 7.70991C8.0932 7.853 7.9797 8.05007 7.94464 8.27316ZM7.59965 9.52475C7.52973 9.44195 7.50077 9.34978 7.49814 9.26097C7.54805 9.20169 7.59227 9.13575 7.62886 9.06287C7.66544 8.99002 7.69192 8.91517 7.70964 8.83971C7.78243 8.78878 7.8737 8.75695 7.98182 8.76359C8.03681 8.9706 8.13397 9.18293 8.25183 9.37572C8.02684 9.39635 7.79851 9.44524 7.59965 9.52475ZM7.87002 10.9186C7.63022 10.9203 7.48934 10.7535 7.43741 10.5968C7.38543 10.44 7.39882 10.2219 7.59216 10.0802C7.74251 9.96994 8.03638 9.88186 8.34195 9.85846C8.31764 10.1457 8.41272 10.4326 8.60376 10.6485C8.34468 10.8122 8.05648 10.9172 7.87002 10.9186ZM8.46839 11.7896C8.33025 11.7202 8.19471 11.5724 8.20778 11.3595C8.41476 11.3044 8.627 11.2071 8.81978 11.0892C8.84035 11.3143 8.88929 11.5428 8.96887 11.7417C8.80599 11.8794 8.60649 11.8589 8.46839 11.7896ZM10.0409 11.904C9.88409 11.956 9.66602 11.9425 9.52435 11.7492C9.41409 11.5989 9.32588 11.305 9.30236 10.9994C9.58968 11.0238 9.87658 10.9288 10.0926 10.7378C10.2563 10.9968 10.3614 11.285 10.3627 11.4714C10.3645 11.7111 10.1976 11.8521 10.0409 11.904ZM10.5337 10.5216C10.7587 10.5009 10.987 10.452 11.1859 10.3725C11.3235 10.5354 11.3031 10.7349 11.2337 10.873C11.1644 11.0112 11.0166 11.1467 10.8037 11.1337C10.7487 10.9266 10.6516 10.7143 10.5337 10.5216ZM13.0575 11.2059C13.2595 11.3565 13.4304 11.5338 13.5642 11.7306C13.6383 11.8395 13.6402 11.9033 13.5638 12.0124C13.426 12.2094 13.2527 12.3843 13.0486 12.5323C12.6806 12.7991 12.3017 12.9523 11.9224 12.9876C11.5717 13.0203 11.2045 12.9538 10.8313 12.7897C10.5889 12.6832 10.3724 12.5427 10.1848 12.3721C10.1882 12.3711 10.1916 12.3702 10.1949 12.3691C10.3755 12.3092 10.5267 12.2047 10.6386 12.0707L12.7706 12.137C12.9058 12.1412 13.0188 12.0351 13.023 11.8998C13.0272 11.7646 12.921 11.6515 12.7858 11.6474L11.0648 11.5938C11.3214 11.5268 11.5421 11.3506 11.6715 11.0929C11.6761 11.0836 11.6801 11.0742 11.6844 11.0648C11.9281 11.1928 12.2199 11.2188 12.5048 11.1243C12.594 11.0948 12.6762 11.055 12.7515 11.0072C12.8543 11.0642 12.9557 11.1299 13.0575 11.2059ZM13.6675 8.28683C13.6397 8.30723 13.608 8.32712 13.5733 8.34591C13.5 8.38574 13.4519 8.46018 13.4459 8.54343C13.4398 8.62668 13.4766 8.70733 13.5434 8.75732C13.575 8.781 13.6035 8.80525 13.6281 8.82949C13.8344 9.03282 13.8125 9.29527 13.7232 9.4731C13.6339 9.65092 13.4365 9.82519 13.1501 9.78112C13.1161 9.77589 13.0797 9.76756 13.0418 9.75631C12.8706 9.70554 12.7053 9.85567 12.7297 10.0259C12.7353 10.0652 12.7383 10.1025 12.7385 10.1369C12.7406 10.4266 12.5396 10.5967 12.3507 10.6593C12.1764 10.7171 11.9393 10.7071 11.7691 10.5218C11.7482 10.3746 11.6918 10.2334 11.6015 10.1095C11.7532 9.95448 11.8428 9.7559 11.8612 9.54364C12.1892 9.46929 12.4829 9.25514 12.6453 8.93182C12.9333 8.35825 12.701 7.65728 12.1274 7.36926C11.6063 7.10758 10.9801 7.2755 10.6539 7.73857C10.617 7.71353 10.578 7.69059 10.5369 7.66996C10.2067 7.50415 9.83577 7.53433 9.5535 7.73992C9.51281 7.70008 9.46886 7.66497 9.42268 7.63385C9.41883 7.52922 9.44543 7.42845 9.48686 7.34586C9.57615 7.16803 9.7736 6.99374 10.0599 7.03777C10.094 7.04302 10.1304 7.05134 10.1684 7.0626C10.2484 7.08634 10.335 7.06767 10.3981 7.01305C10.4613 6.95849 10.4923 6.87547 10.4805 6.79287C10.4748 6.75382 10.4718 6.71651 10.4716 6.682C10.4694 6.3923 10.6705 6.2222 10.8593 6.1596C11.0482 6.09699 11.311 6.11336 11.4825 6.34705C11.5028 6.37475 11.5227 6.4064 11.5415 6.44118C11.5813 6.51451 11.6557 6.56256 11.7389 6.56861C11.8222 6.5747 11.9028 6.538 11.9528 6.47121C11.9766 6.43951 12.0009 6.41096 12.0251 6.38646C12.2284 6.18011 12.4908 6.20198 12.6687 6.29125C12.8465 6.38055 13.0208 6.57799 12.9767 6.86429C12.9715 6.89838 12.9632 6.93484 12.9519 6.97275C12.9282 7.05278 12.9468 7.13936 13.0014 7.20251C13.0561 7.26573 13.139 7.29673 13.2215 7.28483C13.2608 7.27922 13.2981 7.27625 13.3325 7.27598C13.6222 7.27376 13.7924 7.47484 13.8549 7.66379C13.9175 7.85263 13.9012 8.11548 13.6675 8.28683Z" fill="#7E8B9B"/>
</svg>
