<svg width="12" height="16" viewBox="0 0 12 16" fill="none" xmlns="http://www.w3.org/2000/svg">
<path d="M5.86432 0.492065C2.98938 0.492065 0.650391 2.83105 0.650391 5.70599C0.650391 9.31949 5.86945 15.4921 5.86945 15.4921C5.86945 15.4921 11.0782 9.14178 11.0782 5.70599C11.0782 2.83105 8.73935 0.492065 5.86432 0.492065ZM7.43747 7.23263C7.00369 7.66632 6.43405 7.88321 5.86432 7.88321C5.29468 7.88321 4.72485 7.66632 4.29126 7.23263C3.4238 6.36526 3.4238 4.95389 4.29126 4.08642C4.7113 3.6662 5.27005 3.43475 5.86432 3.43475C6.45859 3.43475 7.01724 3.66629 7.43747 4.08642C8.30493 4.95389 8.30493 6.36526 7.43747 7.23263Z" fill="#D0C9C9"/>
</svg>
