<svg width="24" height="24" viewBox="0 0 24 24" fill="none" xmlns="http://www.w3.org/2000/svg">
<g clip-path="url(#clip0_2:287)">
<path d="M23.6477 6.38735C23.0132 6.38735 22.497 5.87121 22.497 5.23666C22.497 5.04209 22.3393 4.8844 22.1448 4.8844C21.9502 4.8844 21.7925 5.04209 21.7925 5.23666C21.7925 5.87116 21.2764 6.38735 20.6418 6.38735C20.4472 6.38735 20.2896 6.54504 20.2896 6.73962C20.2896 6.9342 20.4472 7.09188 20.6418 7.09188C21.2763 7.09188 21.7925 7.60807 21.7925 8.24257C21.7925 8.43715 21.9502 8.59484 22.1448 8.59484C22.3393 8.59484 22.497 8.43715 22.497 8.24257C22.497 7.60807 23.0132 7.09188 23.6477 7.09188C23.8423 7.09188 24 6.9342 24 6.73962C24 6.54504 23.8423 6.38735 23.6477 6.38735ZM22.1448 7.15605C22.0289 6.99626 21.8881 6.85549 21.7284 6.73962C21.8882 6.62374 22.029 6.48293 22.1448 6.32318C22.2607 6.48298 22.4015 6.62374 22.5613 6.73962C22.4015 6.85549 22.2607 6.9963 22.1448 7.15605Z" fill="#7E8B9B"/>
<path d="M3.35805 6.38735C2.7236 6.38735 2.20736 5.87121 2.20736 5.23666C2.20736 5.04209 2.04963 4.8844 1.8551 4.8844C1.66057 4.8844 1.50283 5.04209 1.50283 5.23666C1.50283 5.87116 0.986597 6.38735 0.352144 6.38735C0.157612 6.38735 -0.00012207 6.54504 -0.00012207 6.73962C-0.00012207 6.9342 0.157612 7.09188 0.352144 7.09188C0.986597 7.09188 1.50283 7.60807 1.50283 8.24257C1.50283 8.43715 1.66057 8.59484 1.8551 8.59484C2.04963 8.59484 2.20736 8.43715 2.20736 8.24257C2.20736 7.60807 2.7236 7.09188 3.35805 7.09188C3.55258 7.09188 3.71032 6.9342 3.71032 6.73962C3.71032 6.54504 3.55258 6.38735 3.35805 6.38735ZM1.8551 7.15605C1.73922 6.99626 1.59846 6.85549 1.43866 6.73962C1.5985 6.62374 1.73927 6.48293 1.8551 6.32318C1.97097 6.48298 2.11174 6.62374 2.27153 6.73962C2.11178 6.85549 1.97097 6.9963 1.8551 7.15605Z" fill="#7E8B9B"/>
<path d="M13.8787 1.87866C13.037 1.87866 12.3522 1.19395 12.3522 0.352219C12.3523 0.157688 12.1946 0 12 0C11.8055 0 11.6477 0.157688 11.6477 0.352266C11.6477 1.19395 10.9629 1.8787 10.1213 1.8787C9.92678 1.8787 9.76904 2.03639 9.76904 2.23097C9.76904 2.42555 9.92678 2.58323 10.1213 2.58323C10.9629 2.58323 11.6477 3.26798 11.6477 4.10967C11.6477 4.30425 11.8055 4.46194 12 4.46194C12.1946 4.46194 12.3523 4.30425 12.3523 4.10967C12.3523 3.26798 13.037 2.58323 13.8787 2.58323C14.0733 2.58323 14.231 2.42555 14.231 2.23097C14.231 2.03639 14.0732 1.87866 13.8787 1.87866ZM12 2.90752C11.8259 2.63639 11.5945 2.40506 11.3234 2.23092C11.5945 2.05678 11.8259 1.82545 12 1.55433C12.1742 1.82545 12.4055 2.05678 12.6766 2.23092C12.4055 2.40506 12.1742 2.63639 12 2.90752Z" fill="#7E8B9B"/>
<path d="M19.3338 11.8823L17.9635 7.99994C17.861 7.70941 17.5851 7.51422 17.2771 7.51422H6.62884C6.32073 7.51422 6.04487 7.70941 5.94236 7.99989L4.57211 11.8823C4.49251 12.1078 4.66548 12.3518 4.90426 12.3518H19.0016C19.1159 12.3518 19.2231 12.2963 19.2891 12.203C19.3552 12.1097 19.3719 11.9901 19.3338 11.8823ZM5.40212 11.6473L6.60667 8.23436C6.60986 8.22531 6.61918 8.2187 6.62879 8.2187H17.2771C17.2867 8.2187 17.296 8.22531 17.2992 8.23441L18.5038 11.6473H5.40212Z" fill="#7E8B9B"/>
<path d="M18.7163 16.5319C17.4653 16.5319 16.4854 17.1817 16.4854 18.0113C16.4854 18.8409 17.4653 19.4908 18.7163 19.4908C19.9673 19.4908 20.9472 18.8409 20.9472 18.0113C20.9472 17.1817 19.9673 16.5319 18.7163 16.5319ZM18.7163 18.7863C17.8426 18.7863 17.1898 18.3771 17.1898 18.0113C17.1898 17.6455 17.8426 17.2364 18.7163 17.2364C19.5899 17.2364 20.2427 17.6455 20.2427 18.0113C20.2427 18.3771 19.5899 18.7863 18.7163 18.7863Z" fill="#7E8B9B"/>
<path d="M5.18978 16.5319C3.93878 16.5319 2.95886 17.1817 2.95886 18.0113C2.95886 18.8409 3.93878 19.4908 5.18978 19.4908C6.44078 19.4908 7.42071 18.8409 7.42071 18.0113C7.42071 17.1817 6.44078 16.5319 5.18978 16.5319ZM5.18978 18.7863C4.31617 18.7863 3.66335 18.3771 3.66335 18.0113C3.66335 17.6455 4.31613 17.2364 5.18978 17.2364C6.06344 17.2364 6.71622 17.6455 6.71622 18.0113C6.71622 18.3771 6.06344 18.7863 5.18978 18.7863Z" fill="#7E8B9B"/>
<path d="M23.2251 11.2724H21.3464C21.1848 11.2724 21.0439 11.3824 21.0047 11.5392L20.7572 12.529L19.0266 7.62555C18.7653 6.88525 18.0623 6.38782 17.2771 6.38782H6.62892C5.84381 6.38782 5.14078 6.88525 4.8795 7.6256L3.14888 12.529L2.90142 11.5392C2.86219 11.3823 2.72128 11.2724 2.5597 11.2724H0.681001C0.48647 11.2724 0.328735 11.4301 0.328735 11.6246V13.1276C0.328735 13.3222 0.48647 13.4799 0.681001 13.4799H2.62664L1.42575 15.1611C1.19972 15.4775 1.08024 15.8505 1.08024 16.2394V20.6423C1.08024 21.2523 1.37634 21.7945 1.8323 22.1328C1.83216 22.1369 1.83169 22.141 1.83169 22.1452V23.2724C1.83169 23.6738 2.15827 24.0003 2.55966 24.0003H4.81406C5.2155 24.0003 5.54203 23.6738 5.54203 23.2724V22.4974H18.3639V23.2724C18.3639 23.6738 18.6905 24.0003 19.0919 24.0003H21.3463C21.7478 24.0003 22.0743 23.6738 22.0743 23.2724V22.1452C22.0743 22.141 22.0738 22.1369 22.0737 22.1328C22.5296 21.7945 22.8257 21.2523 22.8257 20.6423V16.2394C22.8257 15.8504 22.7062 15.4775 22.4802 15.1611L21.2793 13.4799H23.225C23.4195 13.4799 23.5772 13.3222 23.5772 13.1276V11.6246C23.5773 11.43 23.4196 11.2724 23.2251 11.2724ZM1.03327 12.7753V11.9769H2.28464L2.48424 12.7753H1.03327ZM4.83759 23.2724C4.83759 23.2853 4.82709 23.2959 4.81411 23.2959H2.5597C2.54677 23.2959 2.53622 23.2853 2.53622 23.2724V22.4974H2.93545H4.83759V23.2724ZM21.3698 23.2724C21.3698 23.2853 21.3593 23.2959 21.3464 23.2959H19.092C19.079 23.2959 19.0685 23.2853 19.0685 23.2724V22.4974H20.9706H21.3698V23.2724ZM20.9707 21.7929H2.93541C2.42377 21.7929 1.98924 21.4572 1.84008 20.9945H22.0659C21.9168 21.4572 21.4823 21.7929 20.9707 21.7929ZM14.9824 17.9886V18.7871H8.92369V17.9886H14.9824ZM8.97905 17.2841C9.1282 16.8214 9.56269 16.4857 10.0744 16.4857H13.8317C14.3434 16.4857 14.7779 16.8214 14.9271 17.2841H8.97905ZM14.9824 19.4915V20.29H8.92369V19.4915H14.9824ZM21.907 15.5705C22.0472 15.7668 22.1213 15.9981 22.1213 16.2393V20.29H15.6869V17.6364C15.6869 16.6134 14.8546 15.7812 13.8317 15.7812H10.0744C9.05142 15.7812 8.2192 16.6135 8.2192 17.6364V20.29H1.78472V16.2393C1.78472 15.9981 1.85883 15.7668 1.99903 15.5705L3.49242 13.4798H16.4618C16.6564 13.4798 16.8141 13.3221 16.8141 13.1276C16.8141 12.933 16.6564 12.7753 16.4618 12.7753H3.80902L5.54381 7.86002C5.70591 7.40088 6.14194 7.0923 6.62892 7.0923H17.2772C17.7641 7.0923 18.2002 7.40083 18.3623 7.86002L20.097 12.7753H17.9648C17.7702 12.7753 17.6125 12.933 17.6125 13.1276C17.6125 13.3221 17.7702 13.4798 17.9648 13.4798H20.4136L21.907 15.5705ZM22.8728 12.7753H21.4218L21.6214 11.9769H22.8728V12.7753Z" fill="#7E8B9B"/>
<path d="M6.31701 15.4055H4.06259C3.86806 15.4055 3.71033 15.5631 3.71033 15.7577C3.71033 15.9523 3.86806 16.11 4.06259 16.11H6.31701C6.51154 16.11 6.66927 15.9523 6.66927 15.7577C6.66927 15.5631 6.51154 15.4055 6.31701 15.4055Z" fill="#7E8B9B"/>
<path d="M19.8434 15.4055H17.589C17.3944 15.4055 17.2367 15.5631 17.2367 15.7577C17.2367 15.9523 17.3944 16.11 17.589 16.11H19.8434C20.0379 16.11 20.1956 15.9523 20.1956 15.7577C20.1956 15.5631 20.0379 15.4055 19.8434 15.4055Z" fill="#7E8B9B"/>
</g>
<defs>
<clipPath id="clip0_2:287">
<rect width="24" height="24" fill="white"/>
</clipPath>
</defs>
</svg>
