<svg width="20" height="20" viewBox="0 0 20 20" fill="none" xmlns="http://www.w3.org/2000/svg">
<path d="M15.8333 5.83332C15.8333 2.61668 13.2166 0 9.99995 0C6.78327 0 4.16663 2.61668 4.16663 5.83332C4.16663 6.19 4.20663 6.55414 4.29331 6.97332C4.20999 7.2625 4.16663 7.58664 4.16663 7.91664C4.16663 9.10414 4.70413 9.99996 5.47913 10.0058C5.49163 10.0075 5.50331 10.0091 5.51581 10.01C6.25495 12.5833 7.95163 14.1667 9.99995 14.1667C12.0483 14.1667 13.7449 12.5834 14.4841 10.01C14.5158 10.0067 14.5491 10.0033 14.5833 10C15.2958 10 15.8333 9.10418 15.8333 7.91668C15.8333 7.58668 15.79 7.2625 15.7066 6.97336C15.7933 6.55418 15.8333 6.19 15.8333 5.83332ZM14.8808 7.12418C14.9591 7.3575 14.9999 7.63168 14.9999 7.91668C14.9999 8.72336 14.6874 9.16668 14.5833 9.16668C14.5483 9.16668 14.4958 9.17086 14.4341 9.1775C14.3924 9.18168 14.3433 9.18918 14.3016 9.18918H14.3008C14.2074 9.15668 14.1041 9.15918 14.0099 9.1975C13.8866 9.2475 13.7949 9.35418 13.7624 9.48332C13.1733 11.8575 11.7324 13.3333 9.99995 13.3333C8.26745 13.3333 6.82663 11.8575 6.23745 9.48332C6.20577 9.35414 6.11327 9.24832 5.98995 9.1975C5.93913 9.17668 5.88577 9.16668 5.83327 9.16668C5.78745 9.16668 5.74245 9.17418 5.69909 9.18918C5.69827 9.18918 5.69827 9.18918 5.69827 9.18918C5.65659 9.18918 5.60745 9.18168 5.56577 9.1775C5.50409 9.17082 5.45159 9.16668 5.41659 9.16668C5.31241 9.16668 4.99991 8.72336 4.99991 7.91668C4.99991 7.63168 5.04073 7.3575 5.11909 7.125C5.14327 7.05332 5.14741 6.97668 5.13077 6.90332C5.04159 6.49832 4.99995 6.15832 4.99995 5.83332C4.99995 3.07582 7.24245 0.83332 9.99995 0.83332C12.7574 0.83332 14.9999 3.07582 14.9999 5.83332C14.9999 6.15832 14.9583 6.49832 14.8691 6.9025C14.8524 6.97668 14.8566 7.05332 14.8808 7.12418Z" fill="#7E8B9B"/>
<path d="M10.4001 8.63467C10.3368 8.41385 10.1084 8.28635 9.88425 8.34967C9.85675 8.35717 7.03593 9.16635 5.83343 9.16635C5.60343 9.16635 5.41675 9.35303 5.41675 9.58303C5.41675 9.81303 5.60339 9.99967 5.83339 9.99967C7.15257 9.99967 9.99507 9.18467 10.1151 9.15049C10.3359 9.08635 10.4643 8.85635 10.4001 8.63467Z" fill="#7E8B9B"/>
<path d="M14.1667 9.16676C12.9642 9.16676 10.1434 8.35758 10.1151 8.34926C9.89174 8.28676 9.66256 8.41344 9.59924 8.63426C9.53592 8.85508 9.66342 9.08594 9.88424 9.15008C10.0051 9.18508 12.8476 10.0001 14.1667 10.0001C14.3967 10.0001 14.5834 9.8134 14.5834 9.5834C14.5834 9.3534 14.3967 9.16676 14.1667 9.16676Z" fill="#7E8B9B"/>
<path d="M11.6409 5.27031L10.3909 1.93699C10.2684 1.61199 9.73168 1.61199 9.61004 1.93699L8.36004 5.27031C8.27922 5.48613 8.38836 5.72613 8.60336 5.80699C8.81918 5.88781 9.05918 5.77949 9.14004 5.56367L10 3.27031L10.86 5.56363C10.9225 5.73031 11.0817 5.83363 11.25 5.83363C11.2992 5.83363 11.3484 5.82531 11.3975 5.80695C11.6125 5.72613 11.7217 5.48613 11.6409 5.27031Z" fill="#7E8B9B"/>
<path d="M10.8334 4.16693H9.16668C8.93668 4.16693 8.75 4.35361 8.75 4.58361C8.75 4.81361 8.93672 5.00025 9.16672 5.00025H10.8334C11.0634 5.00025 11.2501 4.81357 11.2501 4.58357C11.2501 4.35357 11.0634 4.16693 10.8334 4.16693Z" fill="#7E8B9B"/>
<path d="M4.93006 6.85158L3.37674 4.52158L3.69256 3.5724L4.17924 5.5174C4.23506 5.74072 4.46006 5.8774 4.68424 5.8199C4.90756 5.76408 5.04342 5.53822 4.98756 5.3149L4.15424 1.98158C4.10924 1.8024 3.95092 1.67326 3.76592 1.66658C3.58674 1.6574 3.41342 1.77576 3.3551 1.95158L2.52178 4.45158C2.48096 4.57326 2.49928 4.7074 2.5701 4.81408L4.23678 7.31408C4.31678 7.4349 4.44928 7.4999 4.58346 7.4999C4.66346 7.4999 4.74346 7.4774 4.81428 7.42908C5.00588 7.30158 5.05756 7.04322 4.93006 6.85158Z" fill="#7E8B9B"/>
<path d="M17.4783 4.4524L16.645 1.9524C16.5867 1.7774 16.4183 1.65908 16.2342 1.66822C16.0492 1.6749 15.8909 1.80322 15.8459 1.98322L15.0125 5.31654C14.9567 5.53986 15.0925 5.76572 15.3159 5.82154C15.5384 5.87736 15.765 5.74154 15.8209 5.51822L16.3075 3.57322L16.6234 4.5224L15.07 6.8524C14.9425 7.04408 14.9942 7.3024 15.1859 7.4299C15.2575 7.4774 15.3375 7.4999 15.4167 7.4999C15.5509 7.4999 15.6834 7.4349 15.7634 7.31572L17.43 4.81572C17.5008 4.70822 17.5192 4.57408 17.4783 4.4524Z" fill="#7E8B9B"/>
<path d="M7.49993 5.83307C5.95325 5.83307 5.83325 6.78975 5.83325 7.08307C5.83325 7.37639 5.95325 8.33307 7.49993 8.33307C8.68743 8.33307 9.58325 7.79557 9.58325 7.08307C9.58325 6.37057 8.68743 5.83307 7.49993 5.83307ZM7.49993 7.49975C6.66661 7.49975 6.66661 7.18643 6.66661 7.08307C6.66661 6.97971 6.66661 6.66639 7.49993 6.66639C8.30661 6.66639 8.74993 6.97889 8.74993 7.08307C8.74993 7.18725 8.30661 7.49975 7.49993 7.49975Z" fill="#7E8B9B"/>
<path d="M12.4999 5.83307C11.3124 5.83307 10.4166 6.37057 10.4166 7.08307C10.4166 7.79557 11.3124 8.33307 12.4999 8.33307C14.0466 8.33307 14.1666 7.37639 14.1666 7.08307C14.1666 6.78975 14.0466 5.83307 12.4999 5.83307ZM12.4999 7.49975C11.6933 7.49975 11.2499 7.18725 11.2499 7.08307C11.2499 6.97889 11.6933 6.66639 12.4999 6.66639C13.3333 6.66639 13.3333 6.97971 13.3333 7.08307C13.3333 7.18643 13.3333 7.49975 12.4999 7.49975Z" fill="#7E8B9B"/>
<path d="M18.0408 14.439L14.2191 13.1098C14.0616 13.0556 13.8883 13.099 13.775 13.2215C12.7242 14.3681 11.3833 14.9998 10 14.9998C8.61668 14.9998 7.27582 14.3681 6.225 13.2215C6.11168 13.099 5.9375 13.0565 5.78082 13.1098L1.95914 14.439C0.78668 14.8465 0 15.954 0 17.194V19.5831C0 19.8131 0.18668 19.9998 0.41668 19.9998H7.91668C8.085 19.9998 8.2375 19.8981 8.30086 19.7423C8.36586 19.5865 8.33004 19.4073 8.21086 19.2881L8.08918 19.1664H9.16668C9.32418 19.1664 9.46836 19.0772 9.53918 18.9356L10 18.0148L10.4608 18.9365C10.5316 19.0773 10.6758 19.1665 10.8333 19.1665H11.9108L11.7883 19.2881C11.6691 19.4073 11.6333 19.5865 11.6983 19.7423C11.7625 19.8981 11.915 19.9998 12.0833 19.9998H19.5833C19.8133 19.9998 20 19.8131 20 19.5831V17.194C20 15.954 19.2133 14.8465 18.0408 14.439ZM19.1667 19.1665H13.0892L13.2117 19.0448C13.3309 18.9256 13.3667 18.7465 13.3017 18.5906C13.2375 18.4348 13.085 18.3331 12.9167 18.3331H11.0909L10.3734 16.8964C10.2317 16.6139 9.76918 16.6139 9.62754 16.8964L8.90922 18.3331H7.0834C6.91508 18.3331 6.76258 18.4348 6.69922 18.5906C6.63422 18.7464 6.67004 18.9256 6.78922 19.0448L6.9109 19.1665H0.83332V17.194C0.83332 16.3081 1.39582 15.5173 2.23164 15.2256L5.80082 13.9848C6.9825 15.179 8.46414 15.8331 10 15.8331C11.5359 15.8331 13.0175 15.179 14.1983 13.9856L17.7675 15.2265C18.6042 15.5173 19.1667 16.3081 19.1667 17.194V19.1665Z" fill="#7E8B9B"/>
<path d="M10.8334 10.8331H9.16668C8.93668 10.8331 8.75 11.0197 8.75 11.2497C8.75 11.4797 8.93668 11.6664 9.16668 11.6664H10.8334C11.0634 11.6664 11.25 11.4797 11.25 11.2497C11.25 11.0197 11.0634 10.8331 10.8334 10.8331Z" fill="#7E8B9B"/>
</svg>
