<svg width="21" height="21" viewBox="0 0 21 21" fill="none" xmlns="http://www.w3.org/2000/svg">
<path d="M16.4181 2.959C15.8767 2.959 15.3464 3.0804 14.8629 3.3128C14.3052 1.37009 12.5156 0 10.459 0C8.4216 0 6.63438 1.35655 6.06496 3.27871C5.60119 3.06871 5.09559 2.95904 4.58203 2.95904C2.59917 2.95904 0.986023 4.57218 0.986023 6.55505C0.986023 8.53791 2.59917 10.1511 4.58203 10.1511C4.58806 10.1511 4.59409 10.1508 4.60008 10.1508L5.26105 18.7435C5.27323 18.9019 5.40957 19.0281 5.56854 19.0281H6.94138C7.08005 19.5935 7.59095 20.0144 8.19859 20.0144C8.6174 20.0144 9.50962 19.5914 10.1082 19.281C9.99291 19.6442 9.72278 20.1091 9.09151 20.4152C8.95012 20.4837 8.88228 20.6535 8.93737 20.8006C9.00012 20.9682 9.19934 21.048 9.36053 20.9699C9.94213 20.6878 10.291 20.2999 10.5001 19.9243C10.7091 20.2998 11.058 20.6878 11.6396 20.9699C11.8011 21.0481 11.9996 20.9681 12.0627 20.8006C12.1181 20.6536 12.0497 20.4836 11.9086 20.4152C11.2773 20.1091 11.0071 19.6442 10.8919 19.281C11.4905 19.5914 12.3827 20.0144 12.8015 20.0144C13.4091 20.0144 13.92 19.5936 14.0587 19.0281H15.4315C15.5906 19.0281 15.7269 18.9019 15.739 18.7435L16.1832 12.9702C16.1962 12.8005 16.0692 12.6524 15.8995 12.6393C15.729 12.6262 15.5817 12.7532 15.5685 12.923L15.4245 14.7951H12.8366L13.4344 11.2086C13.4623 11.0407 13.3489 10.8819 13.181 10.8539C13.0125 10.8258 12.8543 10.9394 12.8263 11.1073L12.2116 14.7951H10.8083V10.5004C10.8083 10.3302 10.6703 10.1922 10.5001 10.1922C10.3298 10.1922 10.1918 10.3302 10.1918 10.5004V14.7951H8.78852L8.17386 11.1073C8.14585 10.9394 7.9874 10.826 7.81912 10.8539C7.65124 10.8819 7.53775 11.0407 7.56576 11.2086L8.16353 14.7951H5.57564L5.214 10.0943C6.1047 9.93339 6.91788 9.43792 7.46634 8.70169C7.56806 8.56519 7.53984 8.37209 7.4033 8.27037C7.26676 8.16865 7.0737 8.19678 6.97198 8.33341C6.40329 9.09679 5.5322 9.53459 4.58203 9.53459C2.93907 9.53459 1.60249 8.19797 1.60249 6.55505C1.60249 4.91212 2.93915 3.5755 4.58203 3.5755C5.12143 3.5755 5.65012 3.72144 6.11093 3.99755C6.29071 4.1053 6.5302 3.99891 6.5715 3.79403C6.94269 1.95284 8.57758 0.616466 10.4589 0.616466C12.3613 0.616466 13.9997 1.97076 14.3546 3.83665C14.3945 4.04661 14.6419 4.15419 14.8228 4.03919C15.3 3.73583 15.8516 3.5755 16.4181 3.5755C18.061 3.5755 19.3976 4.91212 19.3976 6.55505C19.3976 8.19797 18.061 9.53459 16.4181 9.53459C15.5145 9.53459 14.6699 9.13096 14.1009 8.42721C13.9939 8.29489 13.7999 8.27426 13.6674 8.38131C13.535 8.48832 13.5145 8.68245 13.6215 8.81477C14.1734 9.49727 14.9401 9.94557 15.786 10.0954L15.676 11.526C15.6629 11.6958 15.7899 11.8439 15.9597 11.857C15.9677 11.8576 15.9757 11.8579 15.9836 11.8579C16.1431 11.8579 16.2782 11.735 16.2906 11.5733L16.4 10.1507C16.406 10.1508 16.412 10.151 16.4181 10.151C18.4009 10.151 20.0141 8.53783 20.0141 6.55497C20.0141 4.5721 18.401 2.959 16.4181 2.959ZM8.19863 19.3979C7.82474 19.3979 7.52052 19.0937 7.52052 18.7198C7.52052 18.3459 7.82474 18.0417 8.19863 18.0417C8.44965 18.0417 9.20016 18.3829 9.85013 18.7198C9.2002 19.0568 8.44969 19.3979 8.19863 19.3979ZM12.8015 19.3979C12.5505 19.3979 11.8 19.0567 11.15 18.7198C11.7999 18.3829 12.5505 18.0417 12.8015 18.0417C13.1754 18.0417 13.4797 18.3459 13.4797 18.7198C13.4796 19.0938 13.1754 19.3979 12.8015 19.3979ZM15.3771 15.4115L15.1463 18.4116H14.0587C13.92 17.8461 13.4091 17.4252 12.8015 17.4252C12.2743 17.4252 10.9973 18.0952 10.5 18.3675C10.0028 18.0952 8.72573 17.4252 8.19859 17.4252C7.59099 17.4252 7.08009 17.8461 6.94138 18.4116H5.85381L5.62305 15.4115H15.3771Z" fill="#7E8B9B"/>
</svg>
