<svg width="21" height="21" viewBox="0 0 21 21" fill="none" xmlns="http://www.w3.org/2000/svg">
<path d="M20.0156 0.65625H0.984375C0.897351 0.65625 0.813891 0.69082 0.752356 0.752356C0.69082 0.813891 0.65625 0.897351 0.65625 0.984375V20.0156C0.65625 20.1026 0.69082 20.1861 0.752356 20.2476C0.813891 20.3092 0.897351 20.3438 0.984375 20.3438H20.0156C20.1026 20.3438 20.1861 20.3092 20.2476 20.2476C20.3092 20.1861 20.3438 20.1026 20.3438 20.0156V0.984375C20.3438 0.897351 20.3092 0.813891 20.2476 0.752356C20.1861 0.69082 20.1026 0.65625 20.0156 0.65625ZM19.6875 18.375H15.4219V19.0312H19.6875V19.6875H1.3125V17.7188H19.6875V18.375ZM6.79678 3.28125H7.68272C6.85377 4.89149 5.54505 6.20445 3.9375 7.03861V6.13955C4.591 5.89568 5.18448 5.51428 5.67778 5.02115C6.17109 4.52802 6.55269 3.93466 6.79678 3.28125ZM3.9375 5.42423V3.28125H6.09787C5.66672 4.2376 4.8973 5.00083 3.9375 5.42423ZM8.41706 3.28125H9.32892C8.77308 4.38408 7.08914 7.23614 3.9375 8.68908V7.76541C6.72656 6.55561 8.07188 4.02642 8.41706 3.28125ZM17.0625 6.13955V7.03861C15.4568 6.20252 14.1491 4.89004 13.3189 3.28125H14.2049C14.4488 3.9345 14.8301 4.52775 15.3231 5.02087C15.8161 5.51399 16.4093 5.89549 17.0625 6.13955ZM14.9021 3.28125H17.0625V5.42423C16.1027 5.00083 15.3333 4.2376 14.9021 3.28125ZM17.0625 7.76541V8.68908C13.9125 7.23614 12.2269 4.38408 11.6711 3.28125H12.5829C12.9281 4.02642 14.2734 6.55561 17.0625 7.76541ZM15.75 12.7969V15.75H15.0938V9.1875H14.4375V15.75H13.7812V7.2322C14.3811 7.80321 15.0412 8.30733 15.75 8.73567V12.1406H16.4062V9.09989C16.618 9.20752 16.8368 9.30902 17.0625 9.40439V15.75H16.4062V12.7969H15.75ZM13.125 6.55889V14.4375H7.875V6.55889C8.7631 5.58193 9.49932 4.47705 10.059 3.28125H10.941C11.5007 4.47705 12.2369 5.58193 13.125 6.55889ZM7.21875 7.2322V15.75H6.5625V9.1875H5.90625V15.75H5.25V11.8125H4.59375V15.75H3.9375V9.40439C5.15227 8.88222 6.26359 8.14653 7.21875 7.2322ZM7.54688 16.4062C7.6339 16.4062 7.71736 16.3717 7.77889 16.3101C7.84043 16.2486 7.875 16.1651 7.875 16.0781V15.0938H13.125V16.0781C13.125 16.1651 13.1596 16.2486 13.2211 16.3101C13.2826 16.3717 13.3661 16.4062 13.4531 16.4062H17.0625V17.0625H3.9375V16.4062H7.54688ZM19.6875 17.0625H17.7188V2.95312C17.7188 2.8661 17.6842 2.78264 17.6226 2.72111C17.5611 2.65957 17.4776 2.625 17.3906 2.625H3.60938C3.52235 2.625 3.43889 2.65957 3.37736 2.72111C3.31582 2.78264 3.28125 2.8661 3.28125 2.95312V17.0625H1.3125V1.3125H19.6875V17.0625Z" fill="#7E8B9B"/>
</svg>
