<svg width="21" height="21" viewBox="0 0 21 21" fill="none" xmlns="http://www.w3.org/2000/svg">
<g clip-path="url(#clip0_2:211)">
<path d="M20.9486 10.2891C20.7908 9.37526 20.2902 8.58234 19.5389 8.05666C18.8053 7.5425 17.9179 7.34605 17.042 7.50456C16.244 7.64818 15.5408 8.07427 15.0354 8.6975C14.985 8.64195 14.9294 8.59047 14.8664 8.54643C14.6456 8.39164 14.378 8.33271 14.1138 8.38013C13.5654 8.47903 13.1973 9.01148 13.2935 9.5673L13.2948 9.57442L11.4824 9.90026C11.3669 9.46603 10.9703 9.14527 10.5001 9.14527C10.239 9.14527 10.0029 9.24722 9.8227 9.40947C9.64251 9.24689 9.40643 9.14527 9.14528 9.14527C8.78456 9.14527 8.46888 9.33563 8.28869 9.6198C8.14067 9.5358 7.97233 9.48398 7.79044 9.48398C7.32201 9.48398 6.9308 9.80406 6.81361 10.2359C6.69641 10.1888 6.5694 10.1614 6.43561 10.1614C5.94041 10.1614 5.5282 10.5177 5.43878 10.9872L4.27972 11.1955L2.14585 12.3739L2.19394 12.6526C1.6869 12.8464 1.35665 13.245 1.36106 13.6748L0.836735 13.9367C0.320541 14.1951 0.00012207 14.7137 0.00012207 15.2908C0.00012207 15.7982 0.252122 16.269 0.674154 16.5501L1.58291 17.1561C1.86438 17.3434 2.03238 17.6577 2.03238 17.9961C2.03238 18.4313 1.75498 18.8161 1.34209 18.954C0.539348 19.2212 0.00012207 19.9694 0.00012207 20.8155V21.0001H0.677541V20.8155C0.677541 20.2614 1.03048 19.7716 1.55615 19.5962C2.24611 19.3665 2.7098 18.723 2.7098 17.9961C2.7098 17.4304 2.42901 16.9058 1.95854 16.5921L1.04978 15.9862C0.816751 15.8311 0.677541 15.5709 0.677541 15.2908C0.677541 14.9721 0.854687 14.6855 1.13988 14.5429L1.64388 14.2909C1.67572 14.3201 1.70688 14.3495 1.74346 14.3749C1.95786 14.5247 2.23425 14.6043 2.53198 14.6076L2.57974 14.883L4.98457 15.2468L5.41948 15.1685V15.7145C5.41948 16.5305 5.79612 17.2919 6.43561 17.7864V21.0001H11.5163V17.4145L12.0944 16.8364C12.5954 16.3357 12.8711 15.6702 12.8711 14.9616V13.7571L13.9922 13.6105L13.9953 13.6291C14.0423 13.9018 14.1921 14.1385 14.417 14.2957C14.588 14.4156 14.7868 14.4779 14.9911 14.4779C15.0503 14.4779 15.1103 14.4725 15.1699 14.462C15.5212 14.399 15.7969 14.1568 15.9256 13.8455C16.4411 14.1538 17.0254 14.3164 17.6235 14.3164C17.82 14.3164 18.0178 14.2987 18.2153 14.2635C20.0443 13.9343 21.2704 12.1513 20.9486 10.2891ZM2.13196 13.8198C2.09301 13.7927 2.04423 13.748 2.03441 13.6904C2.01782 13.5942 2.11909 13.4476 2.31317 13.3405L2.41309 13.9187C2.29183 13.9004 2.19394 13.8632 2.13196 13.8198ZM3.16401 14.2862L2.89541 12.7339L4.14186 12.0456L4.56593 14.4982L3.16401 14.2862ZM5.41948 14.4799L5.2552 14.5098L4.78575 11.793L5.41948 11.6788V14.4799ZM12.1937 14.9616C12.1937 15.489 11.9884 15.9848 11.6155 16.3574L10.8388 17.1341V20.3227H7.11303V17.4318L6.9623 17.3312C6.42036 16.9701 6.0969 16.3655 6.0969 15.7145V11.1775C6.0969 10.9906 6.24898 10.8388 6.43561 10.8388C6.62224 10.8388 6.77432 10.9906 6.77432 11.1775V13.2098H7.45174V10.5001C7.45174 10.3135 7.60382 10.1614 7.79044 10.1614C7.97707 10.1614 8.12915 10.3135 8.12915 10.5001V13.2098H8.80657V10.1614C8.80657 9.97477 8.95865 9.82269 9.14528 9.82269C9.33191 9.82269 9.48399 9.97477 9.48399 10.1614V13.2098H10.1614V10.1614C10.1614 9.97477 10.3135 9.82269 10.5001 9.82269C10.6868 9.82269 10.8388 9.97477 10.8388 10.1614V11.9132C10.8388 12.6218 11.1145 13.2877 11.6155 13.788L11.7337 13.9062L12.1937 13.8459V14.9616ZM11.9847 13.1898C11.6815 12.8338 11.5163 12.386 11.5163 11.9132V10.5824L13.41 10.242L13.5871 11.2666L13.2548 11.3262L13.3748 11.9931L13.7026 11.9342L13.8767 12.9425L11.9847 13.1898ZM15.0503 13.7951C14.9643 13.8117 14.8776 13.7907 14.8058 13.7409C14.7299 13.6877 14.6795 13.6071 14.6632 13.5143L13.9614 9.45485L13.9611 9.45248C13.9282 9.26213 14.0505 9.08024 14.2341 9.04739C14.2534 9.044 14.2723 9.04197 14.2916 9.04197C14.3577 9.04197 14.4224 9.06263 14.4783 9.10158C14.5541 9.15476 14.6049 9.23571 14.6209 9.32919L15.323 13.3907C15.3559 13.5803 15.2336 13.7622 15.0503 13.7951ZM18.095 13.5966C17.9843 13.6162 17.8735 13.6274 17.7631 13.6332L17.6215 12.8135L16.9539 12.9287L17.0653 13.5739C16.6609 13.4858 16.2795 13.3026 15.9483 13.0316L15.3298 9.45485C15.5503 9.0843 15.8473 8.77845 16.1976 8.55388L16.8367 12.2512L17.5043 12.1361L16.833 8.25379C16.94 8.21992 17.0494 8.19147 17.1615 8.17114C17.2723 8.15116 17.383 8.141 17.4935 8.13524L18.4232 13.5129C18.3169 13.5468 18.2078 13.5763 18.095 13.5966ZM19.0597 13.2155L18.1905 8.18943C18.5303 8.26361 18.8558 8.40519 19.1504 8.61113C19.7523 9.03282 20.154 9.66959 20.281 10.4043C20.4775 11.5399 19.9596 12.6367 19.0597 13.2155Z" fill="#7E8B9B"/>
<path d="M11.9262 11.565L12.0463 12.2318L12.71 12.1123L12.5899 11.4455L11.9262 11.565Z" fill="#7E8B9B"/>
<path d="M1.01625 8.8066C1.57648 8.8066 2.03238 8.3507 2.03238 7.79047V4.40337H3.72593V3.72595H1.35496V6.83666C1.24861 6.79873 1.13548 6.77434 1.01625 6.77434C0.456025 6.77434 0.00012207 7.23024 0.00012207 7.79047C0.00012207 8.3507 0.456025 8.8066 1.01625 8.8066ZM1.01625 7.45176C1.20288 7.45176 1.35496 7.60384 1.35496 7.79047C1.35496 7.9771 1.20288 8.12918 1.01625 8.12918C0.829622 8.12918 0.677541 7.9771 0.677541 7.79047C0.677541 7.60384 0.829622 7.45176 1.01625 7.45176Z" fill="#7E8B9B"/>
<path d="M9.82277 5.08065C10.383 5.08065 10.8389 4.62474 10.8389 4.06452V2.03937C12.124 2.07324 13.4019 2.37706 14.5647 2.92577V3.78813C14.4584 3.75019 14.3452 3.72581 14.226 3.72581C13.6658 3.72581 13.2099 4.18171 13.2099 4.74194C13.2099 5.30216 13.6658 5.75806 14.226 5.75806C14.7862 5.75806 15.2421 5.30216 15.2421 4.74194V1.14552L15.0548 1.05203C13.6783 0.363774 12.1375 0 10.5991 0H10.1615V3.11071C10.0551 3.07277 9.942 3.04839 9.82277 3.04839C9.26254 3.04839 8.80664 3.50429 8.80664 4.06452C8.80664 4.62474 9.26254 5.08065 9.82277 5.08065ZM14.226 5.08065C14.0394 5.08065 13.8873 4.92856 13.8873 4.74194C13.8873 4.55531 14.0394 4.40323 14.226 4.40323C14.4126 4.40323 14.5647 4.55531 14.5647 4.74194C14.5647 4.92856 14.4126 5.08065 14.226 5.08065ZM10.8389 0.680468C12.1233 0.714339 13.4023 1.0185 14.5647 1.56687V2.17926C13.3907 1.67085 12.1172 1.39311 10.8389 1.36161V0.680468ZM9.82277 3.72581C10.0094 3.72581 10.1615 3.87789 10.1615 4.06452C10.1615 4.25115 10.0094 4.40323 9.82277 4.40323C9.63614 4.40323 9.48406 4.25115 9.48406 4.06452C9.48406 3.87789 9.63614 3.72581 9.82277 3.72581Z" fill="#7E8B9B"/>
<path d="M16.9356 19.0303C16.8293 18.9923 16.7162 18.9679 16.5969 18.9679C16.0367 18.9679 15.5808 19.4238 15.5808 19.9841C15.5808 20.5443 16.0367 21.0002 16.5969 21.0002C17.1572 21.0002 17.6131 20.5443 17.6131 19.9841V16.597H19.3066V15.9196H16.9356V19.0303ZM16.5969 20.3228C16.4103 20.3228 16.2582 20.171 16.2582 19.9841C16.2582 19.7971 16.4103 19.6454 16.5969 19.6454C16.7836 19.6454 16.9356 19.7971 16.9356 19.9841C16.9356 20.171 16.7836 20.3228 16.5969 20.3228Z" fill="#7E8B9B"/>
</g>
<defs>
<clipPath id="clip0_2:211">
<rect width="21" height="21" fill="white"/>
</clipPath>
</defs>
</svg>
