<svg width="13" height="13" viewBox="0 0 13 13" fill="none" xmlns="http://www.w3.org/2000/svg">
<path d="M5.66667 0.66687C6.59865 0.666833 7.5121 0.927279 8.30392 1.41882C9.09575 1.91036 9.73443 2.61342 10.1479 3.44867C10.5614 4.28392 10.7332 5.21811 10.6439 6.14581C10.5546 7.07351 10.2078 7.95779 9.64267 8.69887L12.8047 11.8622C12.9242 11.9822 12.9937 12.1432 12.9988 12.3125C13.004 12.4818 12.9445 12.6467 12.8325 12.7737C12.7205 12.9008 12.5643 12.9804 12.3957 12.9965C12.2271 13.0125 12.0587 12.9638 11.9247 12.8602L11.862 12.8049L8.69867 9.64287C8.06734 10.1243 7.33044 10.4484 6.54896 10.5885C5.76748 10.7285 4.96389 10.6805 4.20467 10.4483C3.44545 10.2161 2.75243 9.80644 2.18297 9.25323C1.61351 8.70003 1.18396 8.01917 0.929886 7.26699C0.675809 6.51482 0.604502 5.71295 0.721864 4.92774C0.839227 4.14254 1.14189 3.39656 1.6048 2.75155C2.06771 2.10654 2.67756 1.58104 3.3839 1.21853C4.09023 0.856014 4.87274 0.666912 5.66667 0.66687ZM5.66667 2.0002C4.69421 2.0002 3.76158 2.38651 3.07394 3.07415C2.38631 3.76178 2 4.69441 2 5.66687C2 6.63933 2.38631 7.57196 3.07394 8.25959C3.76158 8.94723 4.69421 9.33354 5.66667 9.33354C6.63913 9.33354 7.57176 8.94723 8.25939 8.25959C8.94703 7.57196 9.33333 6.63933 9.33333 5.66687C9.33333 4.69441 8.94703 3.76178 8.25939 3.07415C7.57176 2.38651 6.63913 2.0002 5.66667 2.0002Z" fill="#141E2F"/>
</svg>
