<svg width="23" height="23" viewBox="0 0 23 23" fill="none" xmlns="http://www.w3.org/2000/svg">
<path d="M22.6167 16.0999H21.4667V11.4999C21.4667 10.6531 20.7802 9.96659 19.9333 9.96659H18.4V6.13326C18.4 5.28643 17.7135 4.59993 16.8667 4.59993H12.2736L14.2983 3.02826C15.0354 2.45446 15.1677 1.39186 14.594 0.654803C14.0202 -0.0822514 12.9576 -0.214597 12.2205 0.359157C12.0466 0.494569 11.9008 0.662661 11.7914 0.853992L11.6039 1.18213L11.4165 0.853992C10.9521 0.0435298 9.91865 -0.23707 9.10819 0.22729C8.29773 0.691651 8.01718 1.72507 8.48154 2.53553C8.5906 2.7259 8.73569 2.89323 8.90871 3.02821L10.9319 4.59988H6.13333C5.2865 4.59988 4.6 5.28638 4.6 6.13321V9.96654H3.06667C2.21984 9.96654 1.53333 10.653 1.53333 11.4999V16.0999H0.383333C0.171637 16.0999 0 16.2715 0 16.4832C0.00124583 17.5412 0.858667 18.3986 1.91667 18.3999H10.35V20.6999H8.81667C7.75867 20.7011 6.90125 21.5585 6.9 22.6165C6.9 22.8282 7.07164 22.9999 7.28333 22.9999H15.7167C15.9284 22.9999 16.1 22.8282 16.1 22.6165C16.0988 21.5585 15.2413 20.7011 14.1833 20.6999H12.65V18.3999H21.0833C22.1413 18.3986 22.9988 17.5412 23 16.4832C23 16.2715 22.8284 16.0999 22.6167 16.0999ZM9.37978 2.42106C8.98706 2.11732 8.90507 1.55731 9.19425 1.15376C9.36526 0.909432 9.64543 0.764676 9.94367 0.766592C9.96015 0.766592 9.97702 0.766592 9.9935 0.766592C10.3093 0.779386 10.5957 0.955336 10.7498 1.23119L11.27 2.14276C11.3751 2.32652 11.6093 2.39025 11.7931 2.28512C11.8524 2.25119 11.9015 2.20203 11.9355 2.14276L12.456 1.23234C12.7092 0.789113 13.2737 0.635013 13.717 0.888157C13.833 0.954426 13.9333 1.04504 14.0108 1.15376C14.3002 1.55703 14.2188 2.11698 13.8264 2.42106L11.6031 4.15066L9.37978 2.42106ZM5.36667 6.89993H5.75V6.13326H5.36667C5.36667 5.70982 5.70989 5.36659 6.13333 5.36659H16.8667C17.2901 5.36659 17.6333 5.70982 17.6333 6.13326H17.25V6.89993H17.6333V7.91768C17.1288 7.73885 16.7026 7.3893 16.4285 6.92944C16.3194 6.74803 16.0839 6.68938 15.9024 6.79849C15.8487 6.83078 15.8037 6.87578 15.7714 6.92944C15.123 8.01825 13.7147 8.37523 12.6258 7.72678C12.2979 7.53147 12.0238 7.25738 11.8285 6.92944C11.7194 6.74803 11.4839 6.68938 11.3024 6.79849C11.2487 6.83078 11.2037 6.87578 11.1714 6.92944C10.523 8.01825 9.11466 8.37523 8.0258 7.72678C7.69781 7.53147 7.42378 7.25738 7.22847 6.92944C7.10412 6.74803 6.8562 6.70174 6.67479 6.82609C6.63425 6.85388 6.59923 6.8889 6.57144 6.92944C6.29735 7.3893 5.87118 7.73885 5.36662 7.91768V6.89993H5.36667ZM5.36667 8.71616C5.96088 8.56426 6.49534 8.23637 6.9 7.77546C8.01608 9.04573 9.95061 9.1707 11.2209 8.05457C11.3198 7.96765 11.4131 7.87441 11.5 7.77546C12.6161 9.04573 14.5506 9.1707 15.8209 8.05457C15.9198 7.96765 16.0131 7.87441 16.1 7.77546C16.5047 8.23637 17.0391 8.56426 17.6333 8.71616V9.96659H5.36667V8.71616ZM2.3 12.2666H3.06667V11.4999H2.3C2.3 11.0765 2.64323 10.7333 3.06667 10.7333H19.9333C20.3568 10.7333 20.7 11.0765 20.7 11.4999H19.9333V12.2666H20.7V13.4166C19.8907 13.4188 19.1407 12.9926 18.7285 12.2961C18.6194 12.1147 18.3839 12.056 18.2024 12.1652C18.1487 12.1974 18.1037 12.2424 18.0714 12.2961C17.423 13.3849 16.0147 13.7419 14.9258 13.0934C14.5979 12.8981 14.3238 12.6241 14.1285 12.2961C14.0041 12.1147 13.7562 12.0684 13.5748 12.1928C13.5343 12.2205 13.4992 12.2556 13.4714 12.2961C12.823 13.3849 11.4147 13.7419 10.3258 13.0934C9.99781 12.8981 9.72378 12.6241 9.52847 12.2961C9.40412 12.1147 9.1562 12.0684 8.97479 12.1928C8.93425 12.2205 8.89923 12.2556 8.87144 12.2961C8.22298 13.3849 6.81466 13.7419 5.7258 13.0934C5.39781 12.8981 5.12378 12.6241 4.92847 12.2961C4.80412 12.1147 4.5562 12.0684 4.37479 12.1928C4.33425 12.2205 4.29923 12.2556 4.27144 12.2961C3.8593 12.9925 3.10926 13.4188 2.3 13.4166V12.2666ZM2.3 14.1833C3.18143 14.1867 4.02078 13.8069 4.6 13.1425C5.71607 14.4128 7.65061 14.5377 8.92089 13.4216C9.01983 13.3347 9.11308 13.2415 9.2 13.1425C10.3161 14.4128 12.2506 14.5377 13.5209 13.4216C13.6198 13.3347 13.7131 13.2415 13.8 13.1425C14.9161 14.4128 16.8506 14.5377 18.1209 13.4216C18.2198 13.3347 18.3131 13.2415 18.4 13.1425C18.9792 13.8069 19.8186 14.1867 20.7 14.1833V16.0999H2.3V14.1833ZM14.1833 21.4666C14.6705 21.4672 15.1047 21.7741 15.2678 22.2333H7.73222C7.89528 21.7741 8.32945 21.4672 8.81667 21.4666H14.1833ZM11.1167 20.6999V18.3999H11.8833V20.6999H11.1167ZM21.0833 17.6333H1.91667C1.42945 17.6327 0.995277 17.3257 0.832217 16.8666H22.1678C22.0047 17.3257 21.5705 17.6326 21.0833 17.6333Z" fill="#7E8B9B"/>
<path d="M9.58332 6.13226H8.81665V6.89894H9.58332V6.13226Z" fill="#7E8B9B"/>
<path d="M14.1834 6.13226H13.4167V6.89894H14.1834V6.13226Z" fill="#7E8B9B"/>
<path d="M7.28333 11.499H6.51666V12.2657H7.28333V11.499Z" fill="#7E8B9B"/>
<path d="M11.8834 11.499H11.1167V12.2657H11.8834V11.499Z" fill="#7E8B9B"/>
<path d="M16.4833 11.499H15.7166V12.2657H16.4833V11.499Z" fill="#7E8B9B"/>
</svg>
