<svg width="20" height="20" viewBox="0 0 20 20" fill="none" xmlns="http://www.w3.org/2000/svg">
<path d="M19.6914 4.03515H18.063C18.1103 3.96878 18.1532 3.89904 18.1907 3.82595C18.4061 3.40511 18.4353 2.90951 18.2706 2.46608L17.7772 1.13978C17.6127 0.696818 17.2671 0.340676 16.8293 0.162758C16.3911 -0.0153128 15.8947 -0.00112207 15.4673 0.201821L11.5619 2.05654C11.3689 1.91859 11.1329 1.83711 10.878 1.83711H9.12205C8.86722 1.83711 8.63102 1.91875 8.43799 2.05669L4.53279 0.201668C4.10539 -0.00112205 3.60902 -0.0153128 3.17079 0.162758C2.73301 0.340676 2.3874 0.696818 2.22291 1.13963L1.72944 2.46624C1.5648 2.90951 1.59394 3.40511 1.80955 3.82595C1.84693 3.89904 1.88996 3.96893 1.93726 4.03515H0.308687C0.138245 4.03515 0 4.17324 0 4.34384V6.56599C0 6.73643 0.138245 6.87467 0.308687 6.87467C0.479128 6.87467 0.617373 6.73643 0.617373 6.56599V4.65237H2.76139C2.79573 4.66443 2.83052 4.67557 2.86577 4.68533L5.45718 5.39868C4.88131 6.2811 4.37334 7.2093 3.93846 8.17107H0.617373V7.80058C0.617373 7.63014 0.479128 7.49205 0.308687 7.49205C0.138245 7.49205 0 7.63014 0 7.80058V8.47975C0 8.65019 0.138245 8.78844 0.308687 8.78844H1.40946V19.7164C1.40946 19.887 1.54771 20.0251 1.71815 20.0251H18.2819C18.4524 20.0251 18.5906 19.887 18.5906 19.7164V17.9241C18.5906 17.7536 18.4524 17.6154 18.2819 17.6154C18.1113 17.6154 17.9733 17.7536 17.9733 17.9241V19.4078H11.8519V8.97826C12.7262 10.6343 13.3181 12.435 13.5905 14.2955C13.6085 14.4187 13.6988 14.5189 13.8195 14.5497C13.8448 14.5563 13.8705 14.5593 13.8959 14.5593C13.9913 14.5593 14.0832 14.5151 14.1424 14.4365C14.5861 13.8478 14.9987 13.2176 15.3712 12.5597C15.9949 12.9845 16.6006 13.4581 17.1752 13.9708C17.2721 14.0572 17.4128 14.0738 17.5271 14.0122C17.6414 13.9507 17.705 13.8242 17.6861 13.6957C17.4396 12.0146 16.9802 10.3615 16.329 8.78844H17.9731V16.6893C17.9731 16.8599 18.1113 16.998 18.2818 16.998C18.4524 16.998 18.5905 16.8599 18.5905 16.6893V8.78844H19.6914C19.8618 8.78844 19.9999 8.65019 19.9999 8.47975V4.34384C20.0001 4.17324 19.862 4.03515 19.6914 4.03515ZM15.732 0.759379C16.0075 0.628764 16.3145 0.619913 16.5969 0.73466C16.8789 0.849254 17.0925 1.06944 17.1986 1.35493L17.6919 2.68108C17.7981 2.96673 17.7799 3.27343 17.6411 3.54458C17.5024 3.81558 17.2642 4.00936 16.9706 4.09008L12.0571 5.44278V3.95931C13.1615 3.28304 15.9148 1.88823 16.6001 2.85549C16.6985 2.9945 16.8911 3.02761 17.0303 2.92904C17.1694 2.83046 17.2024 2.63775 17.1038 2.49874C16.5749 1.75212 15.4604 1.7158 13.791 2.39101C13.1032 2.66903 12.4683 3.00838 12.0571 3.24383V3.01601C12.0571 2.85076 12.0228 2.69329 11.9611 2.55031L15.732 0.759379ZM9.12205 2.45433H10.878C11.1878 2.45433 11.4397 2.70641 11.4397 3.01601V5.56745C11.4397 5.8772 11.1878 6.12912 10.878 6.12912H9.12205C8.81229 6.12912 8.56037 5.8772 8.56037 5.56745V3.01601C8.56037 2.70626 8.81229 2.45433 9.12205 2.45433ZM8.60325 8.17091C8.89851 7.68034 9.21986 7.20487 9.56562 6.7465H10.4342C10.7801 7.20487 11.1014 7.68034 11.3965 8.17091H8.60325ZM2.35902 3.54458C2.22016 3.27343 2.20201 2.96673 2.30805 2.68123L2.80168 1.35478C2.90757 1.06944 3.1212 0.849254 3.40318 0.73466C3.68547 0.619913 3.99263 0.628764 4.2679 0.759379L8.03897 2.55062C7.97733 2.69344 7.943 2.85076 7.943 3.01616V3.26153C7.53314 3.02562 6.88388 2.6762 6.17861 2.39101C4.5093 1.7158 3.39464 1.75212 2.86577 2.49874C2.76719 2.63775 2.80015 2.83046 2.93931 2.92904C3.07847 3.02761 3.27104 2.99465 3.36946 2.85549C4.06114 1.87907 6.85977 3.30944 7.943 3.97808V5.44278L3.02965 4.09024C2.73591 4.00936 2.49772 3.81558 2.35902 3.54458ZM8.08155 6.12119C8.2352 6.40867 8.50437 6.62549 8.82679 6.70896C7.38315 8.72313 6.38934 11.0374 5.92318 13.47C5.59527 12.9909 5.28872 12.4887 5.00811 11.9701C4.96706 11.8941 4.89626 11.8388 4.81249 11.8176C4.72887 11.7964 4.64022 11.8112 4.56804 11.8584C4.05397 12.1936 3.55058 12.5613 3.06444 12.9562C3.56508 10.3284 4.59948 7.79448 6.08279 5.57096L8.08155 6.12119ZM2.02683 8.78844H3.67113C3.01988 10.3615 2.56044 12.0145 2.31385 13.6957C2.29508 13.8242 2.35856 13.9507 2.47285 14.0122C2.58729 14.0736 2.72783 14.0572 2.82472 13.9708C3.39937 13.4581 4.00499 12.9845 4.62893 12.5597C5.00139 13.2176 5.41384 13.8477 5.85772 14.4365C5.91693 14.5151 6.00878 14.5595 6.10415 14.5595C6.12963 14.5595 6.15527 14.5563 6.1806 14.5497C6.3013 14.5189 6.39148 14.4187 6.40948 14.2955C6.682 12.435 7.2739 10.6341 8.14808 8.97811V19.4078H2.02683V8.78844ZM8.76545 19.4078V8.78844H11.2346V19.4078H8.76545ZM15.432 11.8584C15.3599 11.8112 15.2711 11.7966 15.1876 11.8178C15.104 11.839 15.033 11.8942 14.992 11.9701C14.7114 12.4887 14.4048 12.991 14.0769 13.47C13.6107 11.0373 12.6169 8.72313 11.1731 6.70911C11.4956 6.6258 11.7649 6.40882 11.9185 6.12119L13.9178 5.5708C15.4008 7.79478 16.4352 10.3287 16.9358 12.9562C16.4495 12.5613 15.9461 12.1936 15.432 11.8584ZM19.3827 8.17107H16.0618C15.6269 7.2093 15.1189 6.2811 14.5432 5.39868L17.1343 4.68533C17.1696 4.67557 17.2044 4.66443 17.2387 4.65237H19.3827V8.17107Z" fill="#7E8B9B"/>
</svg>
