<svg width="24" height="24" viewBox="0 0 24 24" fill="none" xmlns="http://www.w3.org/2000/svg">
<g clip-path="url(#clip0_2:247)">
<path d="M22.9189 15.3924C22.7349 15.1487 22.6685 14.8339 22.7366 14.5293C22.8158 14.1775 22.8494 13.815 22.8363 13.4521C22.7718 11.6269 21.5402 10.0659 19.8053 9.56161V4.27465L20.4197 3.1693C20.4488 3.11704 20.464 3.05826 20.464 2.99849V0.870333C20.464 0.392231 20.0751 0.00323486 19.5969 0.00323486H17.659C17.1809 0.00323486 16.792 0.392185 16.792 0.870333V2.99845C16.792 3.05821 16.8072 3.11699 16.8363 3.16925L17.4509 4.27489V9.56114C16.7724 9.75904 16.1504 10.1284 15.6491 10.6296V9.4816H15.9988C16.193 9.4816 16.3504 9.3242 16.3504 9.13005C16.3504 8.93591 16.193 8.77851 15.9988 8.77851H7.09909C6.90494 8.77851 6.74755 8.93591 6.74755 9.13005C6.74755 9.3242 6.90494 9.4816 7.09909 9.4816H7.41965V12.1428C5.90159 13.4159 5.0343 15.2698 5.0343 17.2565C5.0343 18.8725 5.61182 20.3562 6.57112 21.5122L5.46942 23.402C5.37164 23.5698 5.42836 23.7849 5.59607 23.8828C5.65176 23.9152 5.71264 23.9306 5.77283 23.9306C5.89381 23.9306 6.01155 23.8681 6.07684 23.7561L7.07078 22.0511C8.2725 23.2139 9.90827 23.9306 11.7085 23.9306C12.4855 23.9306 13.2468 23.7982 13.9713 23.5371C14.1539 23.4713 14.2486 23.2698 14.1828 23.0872C14.117 22.9045 13.9156 22.8098 13.7329 22.8756C13.0851 23.1091 12.404 23.2275 11.7085 23.2275C8.41603 23.2275 5.73739 20.5489 5.73739 17.2564C5.67229 14.0409 8.49056 11.2335 11.7085 11.2853C12.7662 11.2853 13.7942 11.5628 14.7004 12.0888C14.5152 12.5694 14.4169 13.0833 14.4169 13.6041C14.4169 13.9251 14.4535 14.2457 14.5257 14.5569C14.5917 14.8427 14.5254 15.1441 14.3439 15.3838C14.2923 15.4518 14.243 15.5211 14.195 15.5909C13.646 14.7772 12.7129 14.2627 11.7085 14.2627C10.0577 14.2627 8.71475 15.6057 8.71475 17.2564C8.71475 18.9072 10.0577 20.2502 11.7085 20.2502C12.3036 20.2502 12.8842 20.0692 13.3735 19.7424C13.8898 22.1729 16.0548 23.9961 18.6285 23.996C21.6702 23.9998 24.0151 21.481 24 18.6242C23.9999 17.4472 23.6261 16.3297 22.9189 15.3924ZM18.628 14.5498C18.4649 14.5498 18.3063 14.5694 18.154 14.6055V13.7115H19.1023V14.6056C18.9499 14.5694 18.7913 14.5498 18.628 14.5498ZM18.154 11.9252H19.1022V13.0084H18.154V11.9252ZM18.154 11.2221V10.1394H19.1022V11.2221H18.154ZM19.1022 4.53526V5.86359H18.154V4.53526H19.1022ZM19.1022 6.56673V7.64996H18.154V6.56673H19.1022ZM19.1022 8.35305V9.43627H18.154V8.35305H19.1022ZM17.4951 0.870333C17.4951 0.779916 17.5687 0.706326 17.6591 0.706326H19.597C19.6874 0.706326 19.761 0.779869 19.761 0.870333V2.90733L19.247 3.83203H18.0091L17.4951 2.90737V0.870333ZM14.946 11.4195C14.4038 11.118 13.8242 10.8958 13.223 10.7562V9.48174H14.946V11.4195ZM9.79001 9.48174V10.86C9.20396 11.0351 8.64453 11.2914 8.12274 11.6257V9.48179H9.79001V9.48174ZM10.4931 10.6917V9.48179H12.5199V10.6324C12.2519 10.5998 11.9812 10.5824 11.7085 10.5824C11.2958 10.5823 10.8897 10.6193 10.4931 10.6917ZM11.7085 19.5472C10.4454 19.5472 9.41784 18.5196 9.41784 17.2565C9.41784 15.9934 10.4454 14.9658 11.7085 14.9658C12.5982 14.9658 13.4147 15.4934 13.7867 16.293C13.4049 17.084 13.2113 18.0059 13.2655 18.9357C12.8412 19.3309 12.2941 19.5472 11.7085 19.5472ZM21.9441 21.9109C21.0918 22.777 19.8701 23.2999 18.6286 23.293C16.0762 23.2928 13.9859 21.2298 13.9598 18.6735C13.9483 17.6518 14.2735 16.6445 14.9042 15.8085C15.2121 15.402 15.3238 14.8882 15.2106 14.3985C15.1505 14.139 15.1199 13.8718 15.1199 13.6042C15.1199 12.7992 15.3995 12.0127 15.9073 11.3898C16.3139 10.8911 16.8514 10.5134 17.4509 10.2991V14.9218C16.9206 15.2938 16.573 15.9093 16.573 16.6048C16.573 17.3616 16.9871 18.055 17.6538 18.4146C17.8247 18.5068 18.0379 18.4429 18.1301 18.272C18.2222 18.1011 18.1584 17.8878 17.9875 17.7957C17.5487 17.5591 17.2761 17.1027 17.2761 16.6048C17.2761 15.8593 17.8826 15.2528 18.628 15.2528C19.3735 15.2528 19.98 15.8593 19.98 16.6048C19.98 17.1093 19.7021 17.5684 19.2549 17.803C19.0829 17.8932 19.0166 18.1057 19.1068 18.2776C19.1697 18.3974 19.2919 18.4659 19.4184 18.4659C19.4734 18.4659 19.5293 18.453 19.5814 18.4257C20.261 18.0692 20.683 17.3715 20.683 16.6048C20.683 15.9093 20.3355 15.2939 19.8053 14.9219V10.2992C21.1464 10.7758 22.0824 12.0266 22.1337 13.4771C22.1445 13.7799 22.1166 14.082 22.0506 14.3754C21.9373 14.8823 22.0492 15.4074 22.3577 15.816C22.9721 16.6303 23.2968 17.6013 23.2968 18.6243C23.2968 19.8636 22.8164 21.0308 21.9441 21.9109Z" fill="#7E8B9B"/>
<path d="M3.93699 9.53308C3.74285 9.53308 3.58545 9.69048 3.58545 9.88463V23.5479C3.58545 23.742 3.74285 23.8994 3.93699 23.8994C4.13114 23.8994 4.28854 23.742 4.28854 23.5479V9.88463C4.28854 9.69048 4.13114 9.53308 3.93699 9.53308Z" fill="#7E8B9B"/>
<path d="M6.78904 7.20229C6.88522 7.22896 6.98304 7.24218 7.08021 7.24218C7.26479 7.24218 7.44727 7.19451 7.61231 7.10114C7.86425 6.95856 8.0456 6.72644 8.12308 6.44689L8.12439 6.44202C8.20173 6.16308 8.16578 5.87073 8.02324 5.61879C7.8807 5.36685 7.64854 5.1855 7.36956 5.10816L1.37524 3.44638C1.09635 3.36914 0.803908 3.40499 0.552014 3.54753C0.300073 3.69012 0.118723 3.92223 0.0412421 4.20178L0.0399296 4.20666C-0.0374103 4.4856 -0.00145894 4.77794 0.141081 5.02988C0.283621 5.28182 0.515781 5.46317 0.794768 5.54051L3.58552 6.3142V8.24498C3.58552 8.43912 3.74292 8.59652 3.93707 8.59652C4.13121 8.59652 4.28861 8.43912 4.28861 8.24498V6.50909L6.78904 7.20229ZM0.717615 4.39391L0.718928 4.38904C0.746067 4.29108 0.809767 4.20952 0.898263 4.15946C0.986712 4.1094 1.08941 4.09674 1.18742 4.12393L7.18174 5.78571C7.38399 5.84177 7.50291 6.05194 7.44666 6.25476L7.44535 6.25964C7.41821 6.3576 7.35451 6.43916 7.26601 6.48922C7.17757 6.53923 7.07487 6.55198 6.97686 6.52475L0.98254 4.86297C0.780284 4.80686 0.661368 4.59673 0.717615 4.39391Z" fill="#7E8B9B"/>
<path d="M20.1433 20.2721H17.0643C16.8701 20.2721 16.7127 20.4295 16.7127 20.6236C16.7127 20.8178 16.8701 20.9752 17.0643 20.9752H20.1433C20.3375 20.9752 20.4949 20.8178 20.4949 20.6236C20.4949 20.4295 20.3375 20.2721 20.1433 20.2721Z" fill="#7E8B9B"/>
</g>
<defs>
<clipPath id="clip0_2:247">
<rect width="24" height="24" fill="white"/>
</clipPath>
</defs>
</svg>
