<svg width="20" height="20" viewBox="0 0 20 20" fill="none" xmlns="http://www.w3.org/2000/svg">
<path d="M18.3594 9.0625H17.5V0.9375C17.5 0.85462 17.4671 0.775134 17.4085 0.716529C17.3499 0.657924 17.2704 0.625 17.1875 0.625H5.625V1.25H16.875V9.21738L16.25 9.67934V6.25H15.625V10.1413L13.7383 11.5358C13.4935 11.5192 13.2484 11.5649 13.026 11.6686C12.9846 11.6149 12.9404 11.5633 12.8936 11.5142C12.723 11.3322 12.5169 11.1871 12.2879 11.0879C12.059 10.9886 11.8121 10.9375 11.5626 10.9375C11.3131 10.9375 11.0663 10.9886 10.8373 11.0879C10.6084 11.1871 10.4022 11.3322 10.2316 11.5142L10 11.757L9.76852 11.5143C9.59789 11.3322 9.39174 11.1871 9.1628 11.0879C8.93386 10.9887 8.68701 10.9375 8.4375 10.9375C8.18799 10.9375 7.94114 10.9887 7.7122 11.0879C7.48326 11.1871 7.27711 11.3322 7.10648 11.5143C7.04313 11.5808 6.98459 11.6517 6.93133 11.7264C6.72364 11.625 6.49921 11.5623 6.26902 11.5413L4.375 10.1413V3.75C4.70641 3.74963 5.02413 3.61781 5.25847 3.38347C5.49281 3.14913 5.62463 2.83141 5.625 2.5H14.375C14.3754 2.83141 14.5072 3.14913 14.7415 3.38347C14.9759 3.61781 15.2936 3.74963 15.625 3.75V5.625H16.25V3.38418C16.25 3.3342 16.238 3.28494 16.215 3.24055C16.1921 3.19616 16.1588 3.15793 16.118 3.12907C16.0772 3.1002 16.03 3.08155 15.9805 3.07467C15.931 3.06779 15.8806 3.07289 15.8334 3.08953C15.7222 3.12872 15.6021 3.13565 15.487 3.10951C15.372 3.08338 15.2667 3.02525 15.1832 2.94183C15.0998 2.85841 15.0417 2.7531 15.0155 2.63805C14.9894 2.52301 14.9963 2.40292 15.0355 2.29164C15.0522 2.24451 15.0573 2.19406 15.0504 2.14454C15.0435 2.09503 15.0249 2.04788 14.996 2.00706C14.9671 1.96625 14.9289 1.93295 14.8845 1.90997C14.8401 1.88699 14.7909 1.875 14.7409 1.875H5.25914C5.20915 1.875 5.15988 1.88699 5.11549 1.90997C5.07109 1.93295 5.03285 1.96625 5.00399 2.00706C4.97512 2.04788 4.95647 2.09503 4.9496 2.14454C4.94272 2.19406 4.94783 2.24451 4.96449 2.29164C5.00364 2.40292 5.01054 2.523 4.98439 2.63802C4.95823 2.75305 4.9001 2.85834 4.81668 2.94175C4.73327 3.02516 4.62797 3.0833 4.51294 3.10944C4.39792 3.13559 4.27784 3.12869 4.16656 3.08953C4.11943 3.07289 4.069 3.06779 4.01949 3.07467C3.96998 3.08155 3.92285 3.1002 3.88204 3.12907C3.84123 3.15793 3.80794 3.19616 3.78497 3.24055C3.76199 3.28494 3.75 3.3342 3.75 3.38418V9.67934L3.125 9.21738V1.25H5V0.625H2.8125C2.72962 0.625 2.65013 0.657924 2.59153 0.716529C2.53292 0.775134 2.5 0.85462 2.5 0.9375V9.0625H1.64062C1.45421 9.06272 1.27549 9.13687 1.14368 9.26868C1.01187 9.40049 0.937717 9.57921 0.9375 9.76562V13.75H1.5625V9.76562C1.5625 9.7449 1.57073 9.72503 1.58538 9.71038C1.60003 9.69573 1.6199 9.6875 1.64062 9.6875H2.70953L5.37703 11.6592C4.78676 11.8853 4.375 12.3889 4.375 12.9727C4.375 13.4646 4.66797 13.9145 5.14062 14.1772C5.11826 14.3157 5.11921 14.457 5.14344 14.5952C5.25141 15.2015 5.79391 15.6291 6.48027 15.6828C6.49457 15.7307 6.51187 15.7777 6.53207 15.8234C6.59968 15.9746 6.69865 16.1096 6.82243 16.2195C6.94621 16.3295 7.09196 16.4118 7.25 16.4611C7.3984 16.5091 7.55347 16.5331 7.70941 16.5324C8.04362 16.5273 8.37075 16.4353 8.65863 16.2655C8.73481 16.2219 8.80832 16.1738 8.87879 16.1214L9.77394 17.0602C9.80313 17.0908 9.83822 17.1152 9.8771 17.1318C9.91597 17.1485 9.95783 17.1571 10.0001 17.1571C10.0424 17.1571 10.0843 17.1485 10.1231 17.1318C10.162 17.1152 10.1971 17.0908 10.2263 17.0602L10.9993 16.2496C11.3041 16.4366 11.6552 16.5345 12.0128 16.5321C12.9393 16.5321 13.6951 15.9008 13.7126 15.1192C13.9381 15.0075 14.1278 14.8347 14.26 14.6207C14.83 14.6511 15.3103 14.3887 15.5204 13.9136C15.8342 13.2042 15.4282 12.2751 14.5961 11.7985C14.5652 11.7807 14.534 11.7639 14.5027 11.748L17.2905 9.6875H18.3594C18.3801 9.6875 18.4 9.69573 18.4146 9.71038C18.4293 9.72503 18.4375 9.7449 18.4375 9.76562V18.6719C18.4375 18.6926 18.4293 18.7125 18.4146 18.7271C18.4 18.7418 18.3801 18.75 18.3594 18.75H15.625V19.375H18.3594C18.5458 19.3748 18.7245 19.3006 18.8563 19.1688C18.9881 19.037 19.0623 18.8583 19.0625 18.6719V9.76562C19.0623 9.57921 18.9881 9.40049 18.8563 9.26868C18.7245 9.13687 18.5458 9.06272 18.3594 9.0625ZM8.34766 15.7232C8.04164 15.8986 7.70406 15.9523 7.44461 15.8673C7.36991 15.845 7.30084 15.8069 7.24204 15.7557C7.18324 15.7045 7.13607 15.6413 7.10367 15.5704C7.07407 15.5021 7.05712 15.429 7.05363 15.3547C7.05134 15.3133 7.04085 15.2729 7.02277 15.2356C7.0047 15.1984 6.97941 15.1651 6.94836 15.1377C6.91731 15.1103 6.88112 15.0893 6.84191 15.0761C6.80269 15.0628 6.76123 15.0574 6.71992 15.0603C6.22855 15.0939 5.82418 14.8527 5.75875 14.4856C5.73815 14.3614 5.75288 14.2339 5.80125 14.1177C5.81659 14.0788 5.82398 14.0373 5.82298 13.9955C5.82199 13.9537 5.81263 13.9126 5.79545 13.8745C5.77828 13.8364 5.75365 13.8021 5.72301 13.7737C5.69237 13.7453 5.65635 13.7234 5.61707 13.7091C5.24207 13.5732 4.99988 13.2841 4.99988 12.9725C4.99988 12.5289 5.46914 12.167 6.05086 12.1572L6.06414 12.167L6.07152 12.157H6.07504C6.27562 12.1561 6.47378 12.2008 6.65461 12.2875C6.44711 12.9605 6.5977 13.7294 7.10637 14.2629L8.4427 15.6643C8.41191 15.685 8.38023 15.7046 8.34766 15.7232ZM10 16.3917L7.55879 13.8316C7.31984 13.5758 7.18693 13.2387 7.18693 12.8886C7.18693 12.5385 7.31984 12.2015 7.55879 11.9456C7.67103 11.8247 7.807 11.7283 7.95819 11.6624C8.10938 11.5965 8.27254 11.5625 8.43748 11.5625C8.60242 11.5625 8.76558 11.5965 8.91677 11.6624C9.06796 11.7283 9.20393 11.8247 9.31617 11.9456L9.77383 12.4255C9.80301 12.4562 9.8381 12.4805 9.87698 12.4972C9.91586 12.5138 9.95771 12.5224 10 12.5224C10.0423 12.5224 10.0841 12.5138 10.123 12.4972C10.1619 12.4805 10.197 12.4562 10.2262 12.4255L10.6838 11.9456C10.796 11.8247 10.932 11.7283 11.0832 11.6624C11.2344 11.5965 11.3975 11.5625 11.5625 11.5625C11.7274 11.5625 11.8906 11.5965 12.0418 11.6624C12.193 11.7283 12.3289 11.8247 12.4412 11.9456C12.6801 12.2015 12.813 12.5385 12.813 12.8886C12.813 13.2387 12.6801 13.5758 12.4412 13.8316L10 16.3917ZM14.9487 13.6609C14.8315 13.9259 14.5118 14.0498 14.1337 13.9766C14.0596 13.9622 13.9827 13.9751 13.9173 14.0131C13.852 14.051 13.8026 14.1114 13.7783 14.1829C13.7107 14.3821 13.5319 14.5414 13.2878 14.6201C13.2153 14.6435 13.1538 14.6926 13.115 14.7582C13.0761 14.8237 13.0626 14.9012 13.0769 14.9761C13.0841 15.0141 13.0878 15.0528 13.0878 15.0916C13.0878 15.5412 12.6055 15.9071 12.0127 15.9071C11.8163 15.9084 11.6222 15.866 11.4443 15.7828L12.8935 14.2629C13.4193 13.7115 13.5625 12.9084 13.3232 12.22C13.5797 12.1091 13.9482 12.1478 14.2854 12.3411C14.8247 12.6499 15.1285 13.2544 14.9487 13.6609Z" fill="#7E8B9B"/>
<path d="M1.5625 18.6719V14.375H0.9375V18.6719C0.937717 18.8583 1.01187 19.037 1.14368 19.1688C1.27549 19.3006 1.45421 19.3748 1.64062 19.375H15V18.75H1.64062C1.6199 18.75 1.60003 18.7418 1.58538 18.7271C1.57073 18.7125 1.5625 18.6926 1.5625 18.6719Z" fill="#7E8B9B"/>
<path d="M5.3125 8.4375H8.4375V9.0625H5.3125V8.4375Z" fill="#7E8B9B"/>
<path d="M11.5625 8.4375H14.6875V9.0625H11.5625V8.4375Z" fill="#7E8B9B"/>
<path d="M4.0625 17.1875C4.0625 17.0021 4.00752 16.8208 3.9045 16.6667C3.80149 16.5125 3.65507 16.3923 3.48377 16.3214C3.31246 16.2504 3.12396 16.2318 2.9421 16.268C2.76025 16.3042 2.5932 16.3935 2.46209 16.5246C2.33098 16.6557 2.24169 16.8227 2.20551 17.0046C2.16934 17.1865 2.18791 17.375 2.25886 17.5463C2.32982 17.7176 2.44998 17.864 2.60415 17.967C2.75832 18.07 2.93958 18.125 3.125 18.125C3.37356 18.1247 3.61185 18.0259 3.7876 17.8501C3.96336 17.6743 4.06222 17.4361 4.0625 17.1875ZM2.8125 17.1875C2.8125 17.1257 2.83083 17.0653 2.86517 17.0139C2.8995 16.9625 2.94831 16.9224 3.00541 16.8988C3.06251 16.8751 3.12535 16.8689 3.18597 16.881C3.24659 16.8931 3.30227 16.9228 3.34597 16.9665C3.38968 17.0102 3.41944 17.0659 3.4315 17.1265C3.44355 17.1872 3.43737 17.25 3.41371 17.3071C3.39006 17.3642 3.35001 17.413 3.29862 17.4473C3.24723 17.4817 3.18681 17.5 3.125 17.5C3.04215 17.4999 2.96272 17.467 2.90413 17.4084C2.84555 17.3498 2.81259 17.2704 2.8125 17.1875Z" fill="#7E8B9B"/>
<path d="M17.8125 17.1875C17.8125 17.0021 17.7575 16.8208 17.6545 16.6667C17.5515 16.5125 17.4051 16.3923 17.2338 16.3214C17.0625 16.2504 16.874 16.2318 16.6921 16.268C16.5102 16.3042 16.3432 16.3935 16.2121 16.5246C16.081 16.6557 15.9917 16.8227 15.9555 17.0046C15.9193 17.1865 15.9379 17.375 16.0089 17.5463C16.0798 17.7176 16.2 17.864 16.3542 17.967C16.5083 18.07 16.6896 18.125 16.875 18.125C17.1236 18.1247 17.3618 18.0259 17.5376 17.8501C17.7134 17.6743 17.8122 17.4361 17.8125 17.1875ZM16.5625 17.1875C16.5625 17.1257 16.5808 17.0653 16.6152 17.0139C16.6495 16.9625 16.6983 16.9224 16.7554 16.8988C16.8125 16.8751 16.8753 16.8689 16.936 16.881C16.9966 16.8931 17.0523 16.9228 17.096 16.9665C17.1397 17.0102 17.1694 17.0659 17.1815 17.1265C17.1936 17.1872 17.1874 17.25 17.1637 17.3071C17.1401 17.3642 17.1 17.413 17.0486 17.4473C16.9972 17.4817 16.9368 17.5 16.875 17.5C16.7921 17.4999 16.7127 17.467 16.6541 17.4084C16.5955 17.3498 16.5626 17.2704 16.5625 17.1875Z" fill="#7E8B9B"/>
<path d="M9.99992 7.4193C10.3279 7.648 10.7122 7.78244 11.1112 7.80802C11.5103 7.8336 11.9086 7.74933 12.2631 7.56437C12.6176 7.37941 12.9146 7.10084 13.1218 6.75892C13.3291 6.41701 13.4387 6.02483 13.4387 5.625C13.4387 5.22517 13.3291 4.833 13.1218 4.49108C12.9146 4.14917 12.6176 3.87059 12.2631 3.68563C11.9086 3.50067 11.5103 3.4164 11.1112 3.44198C10.7122 3.46756 10.3279 3.602 9.99992 3.8307C9.67196 3.602 9.2876 3.46756 8.88859 3.44198C8.48958 3.4164 8.0912 3.50067 7.73672 3.68563C7.38225 3.87059 7.08525 4.14917 6.87799 4.49108C6.67074 4.833 6.56116 5.22517 6.56116 5.625C6.56116 6.02483 6.67074 6.41701 6.87799 6.75892C7.08525 7.10084 7.38225 7.37941 7.73672 7.56437C8.0912 7.74933 8.48958 7.8336 8.88859 7.80802C9.2876 7.78244 9.67196 7.648 9.99992 7.4193ZM9.99992 4.68852C10.2028 4.9586 10.3124 5.28723 10.3124 5.625C10.3124 5.96277 10.2028 6.2914 9.99992 6.56148C9.79708 6.2914 9.68742 5.96277 9.68742 5.625C9.68742 5.28723 9.79708 4.9586 9.99992 4.68852ZM12.8124 5.625C12.8125 5.89936 12.7403 6.16891 12.6032 6.40651C12.466 6.64412 12.2686 6.8414 12.031 6.9785C11.7933 7.1156 11.5238 7.18769 11.2494 7.18751C10.975 7.18733 10.7056 7.11488 10.4681 6.97746C10.7721 6.5922 10.9374 6.11576 10.9374 5.625C10.9374 5.13424 10.7721 4.6578 10.4681 4.27254C10.7056 4.13512 10.975 4.06268 11.2494 4.06249C11.5238 4.06231 11.7933 4.1344 12.031 4.2715C12.2686 4.4086 12.466 4.60588 12.6032 4.84349C12.7403 5.08109 12.8125 5.35064 12.8124 5.625ZM7.18742 5.625C7.18733 5.35064 7.25951 5.08109 7.39669 4.84349C7.53387 4.60588 7.73122 4.4086 7.96887 4.2715C8.20652 4.1344 8.47609 4.06231 8.75045 4.06249C9.02481 4.06268 9.29429 4.13512 9.53175 4.27254C9.22776 4.6578 9.06242 5.13424 9.06242 5.625C9.06242 6.11576 9.22776 6.5922 9.53175 6.97746C9.29429 7.11488 9.02481 7.18733 8.75045 7.18751C8.47609 7.18769 8.20652 7.1156 7.96887 6.9785C7.73122 6.8414 7.53387 6.64412 7.39669 6.40651C7.25951 6.16891 7.18733 5.89936 7.18742 5.625Z" fill="#7E8B9B"/>
<path d="M5.3125 9.6875H7.8125V10.3125H5.3125V9.6875Z" fill="#7E8B9B"/>
<path d="M12.1875 9.6875H14.6875V10.3125H12.1875V9.6875Z" fill="#7E8B9B"/>
</svg>
