<svg width="25" height="25" viewBox="0 0 25 25" fill="none" xmlns="http://www.w3.org/2000/svg">
<path d="M20.2634 2.71661L13.7476 7.4507L24.6653 15.383C24.8838 14.459 25 13.496 25 12.5062C25 8.54484 23.1473 5.00841 20.2634 2.71661Z" fill="#7E8B9B"/>
<path d="M18.9934 1.82859C17.0998 0.672681 14.8763 0.00598145 12.5001 0.00598145C9.94625 0.00598145 7.5693 0.776392 5.5882 2.09617L8.07823 9.75906L18.9934 1.82859Z" fill="#7E8B9B"/>
<path d="M4.35259 3.034C1.68921 5.32809 0 8.72345 0 12.5062C0 13.6685 0.160059 14.7941 0.458252 15.8626H8.52119L4.35259 3.034Z" fill="#7E8B9B"/>
<path d="M0.967651 17.327C2.79387 21.679 7.01428 24.7866 11.9718 24.9938L14.4629 17.327H0.967651Z" fill="#7E8B9B"/>
<path d="M13.5217 24.9641C18.4361 24.5646 22.5554 21.3104 24.2148 16.8662L17.6925 12.1274L13.5217 24.9641Z" fill="#7E8B9B"/>
</svg>
