<svg width="25" height="25" viewBox="0 0 25 25" fill="none" xmlns="http://www.w3.org/2000/svg">
<g clip-path="url(#clip0_2:414)">
<path d="M17.2578 23.0497C17.6475 23.6322 17.7123 24.3518 17.48 25.0001H24.2674C24.5191 25.0001 24.7523 24.8713 24.8868 24.6582C25.0212 24.4451 25.037 24.1783 24.9283 23.9515C24.9283 23.9515 24.9082 23.9108 24.9068 23.9072C23.7596 21.612 22.05 21.3595 20.2919 21.092C18.6154 20.8364 16.6089 20.5281 14.2599 18.238C14.6356 19.3678 15.4399 20.4906 16.2837 21.6606C16.6184 22.1256 16.9503 22.5876 17.2578 23.0497Z" fill="#7E8B9B"/>
<path d="M4.44354 5.78231V5.90819H11.7676V5.78231C11.7676 4.64152 12.2111 3.53714 13.0178 2.73105C13.3039 2.44566 13.3039 1.98219 13.0178 1.69611C12.8218 1.49797 11.0581 -0.227188 9.45306 0.0252972C8.86513 0.120412 8.42598 0.382224 8.10553 0.701895C7.78517 0.382175 7.34602 0.120412 6.75809 0.0252972C5.16169 -0.226456 3.39073 1.49871 3.19332 1.69611C2.90724 1.98219 2.90724 2.44571 3.19332 2.73105C4.00009 3.53709 4.44354 4.64152 4.44354 5.78231Z" fill="#7E8B9B"/>
<path d="M0.732681 24.9996H3.40787C4.0896 24.3179 7.37318 22.122 7.37318 12.4999C7.37318 12.0951 7.70076 11.7675 8.10558 11.7675C8.51041 11.7675 8.83799 12.0951 8.83799 12.4999C8.83799 21.7167 11.7959 23.9923 12.8033 24.9996H15.4297C15.7 24.9996 15.9475 24.8509 16.0748 24.6127C16.2036 24.3745 16.1893 24.0856 16.0391 23.8609C15.7415 23.4139 15.4197 22.9669 15.0949 22.517C13.8547 20.7962 12.5716 19.0159 12.5716 16.9782C12.5716 16.534 12.7017 15.7692 12.8405 15.0111C13.0379 13.9289 13.2611 12.703 13.2611 11.5536C13.2611 10.2163 12.6312 8.47418 12.1685 7.37299H4.04268C3.57999 8.47418 2.95017 10.2163 2.95017 11.5536C2.95017 12.7008 3.17331 13.9196 3.3693 14.9953C3.50807 15.7563 3.63966 16.5247 3.63966 16.9781C3.63966 19.0158 2.3077 20.7961 1.06744 22.517C0.74274 22.9669 0.420871 23.4139 0.123318 23.8609C-0.0268743 24.0855 -0.0411807 24.3745 0.0875765 24.6126C0.214869 24.8509 0.462325 24.9996 0.732681 24.9996Z" fill="#7E8B9B"/>
<path d="M5.47925 24.9996H10.732C10.6876 24.9552 9.09973 23.615 8.10561 19.4665C7.11115 23.6165 5.52183 24.957 5.47925 24.9996Z" fill="#7E8B9B"/>
</g>
<defs>
<clipPath id="clip0_2:414">
<rect width="25" height="25" fill="white"/>
</clipPath>
</defs>
</svg>
