<svg width="21" height="20" viewBox="0 0 21 20" fill="none" xmlns="http://www.w3.org/2000/svg">
<path d="M20.0156 19.0158V10.4846H20.3437C20.4763 10.4846 20.596 10.4045 20.6469 10.2821C20.6977 10.1594 20.6695 10.0183 20.5757 9.92447L17.9507 7.29947C17.8893 7.23778 17.8056 7.20333 17.7187 7.20333H13.1249V4.57833H13.7812C13.9138 4.57833 14.0335 4.49827 14.0844 4.37588C14.1352 4.25316 14.107 4.11206 14.0132 4.01822L10.7319 0.73697C10.6036 0.608673 10.3963 0.608673 10.268 0.73697L6.98671 4.01822C6.89286 4.11206 6.86464 4.25316 6.9155 4.37588C6.96636 4.49827 7.08613 4.57833 7.21869 4.57833H7.87494V7.20333H3.28119C3.19424 7.20333 3.11057 7.23778 3.04921 7.29947L0.424206 9.92447C0.330362 10.0183 0.302143 10.1594 0.353003 10.2821C0.403862 10.4045 0.523628 10.4846 0.65619 10.4846H0.984315V19.0158H0.328065V19.6721H20.6718V19.0158H20.0156ZM19.3593 19.0158H16.7343V13.1096H17.3906C17.5231 13.1096 17.6429 13.0295 17.6938 12.9071C17.7446 12.7844 17.7164 12.6433 17.6226 12.5495L15.5577 10.4846H19.3593V19.0158ZM11.8124 19.0158H9.18744V18.3596C9.18744 17.6357 9.7761 17.0471 10.4999 17.0471C11.2238 17.0471 11.8124 17.6357 11.8124 18.3596V19.0158ZM10.4999 16.3908C9.41418 16.3908 8.53119 17.2738 8.53119 18.3596V19.0158H4.92182V13.1096H16.0781V19.0158H12.4687V18.3596C12.4687 17.2738 11.5857 16.3908 10.4999 16.3908ZM7.68266 9.17208H13.3172L16.5985 12.4533H4.40141L7.68266 9.17208ZM11.1562 8.51583H9.84369V7.20333C9.84369 6.84141 10.138 6.54708 10.4999 6.54708C10.8619 6.54708 11.1562 6.84141 11.1562 7.20333V8.51583ZM17.5828 7.85958L19.5516 9.82833H14.9014L13.6851 8.61197C13.6237 8.55028 13.54 8.51583 13.4531 8.51583H13.1249V7.85958H17.5828ZM10.4999 1.43292L12.9891 3.92208H8.01078L10.4999 1.43292ZM12.4687 4.57833V8.51583H11.8124V7.20333C11.8124 6.47949 11.2238 5.89083 10.4999 5.89083C9.7761 5.89083 9.18744 6.47949 9.18744 7.20333V8.51583H8.53119V4.57833H12.4687ZM3.41703 7.85958H7.87494V8.51583H7.54682C7.45986 8.51583 7.37619 8.55028 7.31483 8.61197L6.09847 9.82833H1.44828L3.41703 7.85958ZM1.64057 10.4846H5.44222L3.37733 12.5495C3.28349 12.6433 3.25527 12.7844 3.30613 12.9071C3.35699 13.0295 3.47675 13.1096 3.60932 13.1096H4.26557V19.0158H1.64057V10.4846Z" fill="#7E8B9B"/>
</svg>
