<svg width="21" height="19" viewBox="0 0 21 19" fill="none" xmlns="http://www.w3.org/2000/svg">
<path d="M16.4534 4.5652C15.5126 4.1597 14.4989 3.95061 13.4744 3.95083C12.4522 3.95039 11.4409 4.15948 10.5027 4.5652C9.9709 4.33529 9.41409 4.16818 8.84359 4.06734L10.5499 2.64547C10.6664 2.54839 10.707 2.38736 10.6507 2.24663L9.95092 0.497288C9.89783 0.364339 9.76907 0.277178 9.62589 0.277222H5.07762C4.93448 0.277178 4.80568 0.364339 4.75259 0.497288L4.05286 2.24663C3.99648 2.38736 4.03716 2.54839 4.15362 2.64547L5.92954 4.12541C1.87047 5.00467 -0.707261 9.00799 0.172042 13.0671C1.0513 17.1261 5.05461 19.7039 9.11369 18.8246C9.58854 18.7218 10.0523 18.5731 10.4985 18.3808C14.3135 20.0252 18.7393 18.2655 20.3837 14.4504C22.0281 10.6354 20.2685 6.20962 16.4534 4.5652ZM9.56292 1.41184L9.80782 2.02656H9.19415L9.56292 1.41184ZM9.00803 0.976956L8.57629 1.69663L8.14455 0.976956H9.00803ZM7.48575 1.23866L7.95842 2.02656H6.85529L7.48575 1.23866ZM6.79861 0.976956L6.16885 1.76486L5.69548 0.976956H6.79861ZM5.14059 1.41184L5.50935 2.02656H4.89464L5.14059 1.41184ZM5.34422 2.72629H9.35929L8.09977 3.7759H6.60374L5.34422 2.72629ZM7.52669 18.2954C3.75879 18.2917 0.707252 15.2343 0.710882 11.4664C0.714511 7.69848 3.772 4.64693 7.53994 4.65056C8.26403 4.65126 8.9834 4.76725 9.67107 4.99413C9.40639 5.15031 9.15147 5.3224 8.90766 5.50949C5.60732 4.74009 2.30816 6.7918 1.53875 10.0921C0.769353 13.3924 2.82106 16.6916 6.12136 17.461C9.42166 18.2304 12.7208 16.1787 13.4902 12.8784C14.0441 10.5023 13.1378 8.0239 11.1818 6.56574C11.4273 6.44954 11.6814 6.3521 11.9417 6.2743C14.814 8.71117 15.167 13.0151 12.7301 15.8874C11.4337 17.4156 9.53073 18.2962 7.52669 18.2954ZM8.22327 6.09692C5.25229 8.98853 5.18796 13.7411 8.07957 16.7121C8.124 16.7578 8.16896 16.8028 8.21453 16.8473C5.2452 17.2298 2.528 15.1328 2.14547 12.1635C1.76293 9.19416 3.85995 6.47696 6.82923 6.09442C7.06049 6.06464 7.29346 6.04977 7.52664 6.04999C7.75966 6.05091 7.99232 6.06657 8.22327 6.09692ZM10.5006 16.0024C7.99905 14.3656 7.29805 11.0108 8.93482 8.50934C9.34324 7.88509 9.87635 7.35202 10.5006 6.9436C13.0021 8.58071 13.7028 11.9357 12.0657 14.4372C11.6574 15.0612 11.1245 15.594 10.5006 16.0024ZM12.7859 6.09867H12.7866C15.7561 5.71945 18.4708 7.81931 18.8501 10.7889C19.2293 13.7584 17.1294 16.4731 14.1599 16.8523C13.7 16.9111 13.2344 16.9105 12.7747 16.8508C15.7468 13.9604 15.813 9.20781 12.9226 6.23568C12.8776 6.18941 12.8321 6.14375 12.7859 6.09867ZM18.672 15.8928C17.3759 17.4174 15.4756 18.2959 13.4745 18.2954C12.7459 18.2968 12.0218 18.1808 11.3301 17.9519C11.5952 17.7955 11.8505 17.623 12.0946 17.4355C15.3963 18.2055 18.6972 16.1532 19.4673 12.8515C20.2373 9.54971 18.185 6.24885 14.8833 5.47879C11.5815 4.70873 8.28065 6.76105 7.51059 10.0628C6.9561 12.4402 7.86304 14.9203 9.82042 16.3792C9.57446 16.4959 9.31993 16.5937 9.05911 16.6717C6.1895 14.2322 5.84081 9.92836 8.28026 7.05879C10.7197 4.18918 15.0236 3.84049 17.8932 6.27994C20.7627 8.71935 21.1115 13.0232 18.672 15.8928Z" fill="#7E8B9B"/>
</svg>
