<svg width="7" height="9" viewBox="0 0 7 9" fill="none" xmlns="http://www.w3.org/2000/svg">
<path d="M3.42368 0.276855C1.80653 0.276855 0.490845 1.59254 0.490845 3.20969C0.490845 5.24228 3.42656 8.71435 3.42656 8.71435C3.42656 8.71435 6.35651 5.14232 6.35651 3.20969C6.35651 1.59254 5.04088 0.276855 3.42368 0.276855ZM4.30858 4.06843C4.06458 4.31237 3.74415 4.43437 3.42368 4.43437C3.10326 4.43437 2.78273 4.31237 2.53883 4.06843C2.05089 3.58053 2.05089 2.78663 2.53883 2.29868C2.77511 2.06231 3.0894 1.93212 3.42368 1.93212C3.75796 1.93212 4.0722 2.06236 4.30858 2.29868C4.79652 2.78663 4.79652 3.58053 4.30858 4.06843Z" fill="#7C7676"/>
</svg>
